<svg enable-background="new 0 0 64 64" height="512" viewBox="10.7 2 42.7 60"  width="512" xmlns="http://www.w3.org/2000/svg"><g id="Layer_2"><path d="m44.24 4.12h-24.48c-3.59 0-6.5 2.92-6.5 6.5v42.76c0 3.58 2.91 6.5 6.5 6.5h24.48c3.59 0 6.5-2.92 6.5-6.5v-42.76c0-3.58-2.91-6.5-6.5-6.5zm-25.48 16.55c-.06.21-.26.35-.47.35h-1.74c-.16 0-.31-.08-.41-.21-.09-.13-.12-.3-.07-.46l4.43-13.03c.07-.2.26-.34.48-.34h2.02c.22 0 .41.14.48.34l4.4 12.91c.06.08.09.18.09.29 0 .27-.22.5-.5.5 0 0-.01-.01-.02 0h-1.8c-.21 0-.4-.14-.47-.34l-1.28-3.76h-3.9zm9.67 21.97c-.33 0-.64-.17-.81-.46-.24-.4-.15-.9.2-1.2.58-.5 1.13-1.19 1.63-2.05-1.19.36-2.49.35-3.69-.09-2.23-.84-3.72-2.99-3.72-5.36 0-2.6 1.81-4.9 4.3-5.55-.22-1.39.11-2.81.95-4.04 1.08-1.58 2.84-2.52 4.7-2.53 1.86.01 3.62.95 4.7 2.53.85 1.23 1.18 2.65.96 4.04 2.49.65 4.31 2.95 4.31 5.55 0 2.37-1.5 4.52-3.74 5.35-1.18.45-2.5.46-3.68.09.48.85 1.01 1.51 1.59 2.02.22.12.39.43.39.76 0 .52-.42.94-.95.94zm19.5 1.01-4.45 13.03c-.07.2-.26.34-.48.34h-2.02c-.22 0-.41-.14-.48-.34l-4.43-13.03c-.05-.16-.02-.33.07-.46.1-.13.25-.21.41-.21h1.74c.21 0 .41.14.47.35l1.24 3.75h3.9l1.28-3.76c.07-.2.26-.34.47-.34h1.8c.16 0 .32.08.41.21.09.14.12.3.07.46z"/><path d="m20.68 14.6h2.54c-.3-.93-.87-2.67-1.27-3.97-.41 1.3-.97 3.04-1.27 3.97z"/><path d="m41.95 53.37c.4-1.3.97-3.04 1.27-3.97h-2.54c.3.93.86 2.67 1.27 3.97z"/></g></svg>