<svg enable-background="new 0 0 64 64" height="512" viewBox="10.7 2 42.7 60"  width="512" xmlns="http://www.w3.org/2000/svg"><g id="Layer_51"><path d="m44.24 4.12h-24.48c-3.59 0-6.5 2.92-6.5 6.5v42.76c0 3.58 2.91 6.5 6.5 6.5h24.48c3.59 0 6.5-2.92 6.5-6.5v-42.76c0-3.58-2.91-6.5-6.5-6.5zm-25 11.41v4c0 .279-.22.5-.5.5h-1.61c-.27 0-.5-.221-.5-.5v-12.16c0-.28.23-.5.5-.5h1.61c.28 0 .5.22.5.5v4.82l5.19-5.181c.1-.09.22-.14.36-.14h2.18c.2 0 .39.12.46.31.08.19.03.4-.11.54l-4.79 4.63 5.07 6.891c.11.149.13.35.04.52-.08.17-.26.271-.45.271h-2.12c-.16 0-.32-.07-.41-.21l-3.99-5.681zm16.33 27.11h-7.14c-.33 0-.64-.18-.81-.46-.24-.399-.15-.899.2-1.199.58-.5 1.13-1.19 1.63-2.051-1.18.36-2.49.351-3.69-.1-2.23-.83-3.72-2.98-3.72-5.35 0-2.601 1.81-4.9 4.3-5.551-.22-1.39.11-2.81.95-4.04 1.08-1.58 2.84-2.52 4.7-2.529 1.86.01 3.62.949 4.7 2.529.85 1.23 1.18 2.65.96 4.04 2.49.65 4.31 2.95 4.31 5.551 0 2.369-1.5 4.52-3.74 5.35-1.18.45-2.5.46-3.68.09.48.85 1.01 1.51 1.59 2.021.22.119.39.43.39.76 0 .519-.42.939-.95.939zm11.8 13.99c0 .28-.23.5-.5.5h-1.61c-.28 0-.5-.22-.5-.5v-4.82l-5.19 5.181c-.1.09-.22.14-.36.14h-2.18c-.2 0-.39-.12-.46-.31-.08-.19-.03-.4.11-.551l4.79-4.619-5.07-6.891c-.11-.149-.13-.35-.04-.52.08-.17.26-.28.45-.28h2.12c.16 0 .32.08.41.22l3.99 5.681 1.43-1.391v-4.01c0-.27.22-.5.5-.5h1.61c.27 0 .5.23.5.5z"/></g></svg>