<svg enable-background="new 0 0 64 64" height="512" viewBox="10.7 2 42.7 60"  width="512" xmlns="http://www.w3.org/2000/svg"><g id="Layer_15"><path d="m44.24 4.12h-24.48c-3.59 0-6.5 2.92-6.5 6.5v42.76c0 3.58 2.91 6.5 6.5 6.5h24.48c3.59 0 6.5-2.92 6.5-6.5v-42.76c0-3.58-2.91-6.5-6.5-6.5zm-26.81 13c-.279 0-.5-.22-.5-.5v-1.37c0-.1.03-.2.09-.29l5.551-7.88c.09-.14.25-.21.41-.21h1.22c.28 0 .5.22.5.5v7.38h1.14c.28 0 .5.22.5.5v1.37c0 .28-.22.5-.5.5h-1.141v2.41c0 .28-.22.5-.5.5h-1.49c-.28 0-.5-.22-.5-.5v-2.41zm18.14 25.52h-7.14c-.33 0-.64-.17-.81-.46-.24-.4-.15-.9.2-1.2.58-.5 1.13-1.19 1.63-2.05-1.19.36-2.49.35-3.69-.09-2.229-.84-3.72-2.99-3.72-5.36 0-2.6 1.82-4.9 4.3-5.55-.22-1.39.11-2.81.95-4.04 1.08-1.58 2.84-2.52 4.7-2.53 1.859.01 3.62.95 4.7 2.53.85 1.23 1.18 2.65.96 4.04 2.489.65 4.31 2.95 4.31 5.55 0 2.37-1.5 4.52-3.74 5.35-1.18.45-2.5.47-3.68.09.479.85 1.01 1.51 1.59 2.02.22.12.39.43.39.76 0 .52-.42.94-.95.94zm11.5 6.11c0 .1-.03.2-.09.29l-5.551 7.88c-.09.14-.25.21-.41.21h-1.219c-.28 0-.5-.22-.5-.5v-7.38h-1.14c-.28 0-.5-.22-.5-.5v-1.37c0-.28.22-.5.5-.5h1.14v-2.41c0-.28.22-.5.5-.5h1.49c.28 0 .5.22.5.5v2.41h4.78c.279 0 .5.22.5.5z"/><path d="m41.79 52.64 2.36-3.39h-2.36z"/><path d="m22.21 11.36-2.36 3.39h2.36z"/></g></svg>