<svg enable-background="new 0 0 64 64" height="512" viewBox="10.7 2 42.7 60"  width="512" xmlns="http://www.w3.org/2000/svg"><g id="Layer_29"><path d="m44.24 4.12h-24.48c-3.59 0-6.5 2.92-6.5 6.5v42.76c0 3.58 2.91 6.5 6.5 6.5h24.48c3.59 0 6.5-2.92 6.5-6.5v-42.76c0-3.58-2.91-6.5-6.5-6.5zm-22.99 15.91h-1.53c-.14 0-.27-.05-.36-.15-.09-.09-.15-.22-.14-.35.01-1 .21-2.2.58-3.59.36-1.39.9-2.74 1.59-4.03.49-.92 1-1.74 1.54-2.45h-4.92c-.27 0-.5-.22-.5-.5v-1.44c0-.27.23-.5.5-.5h7.88c.28 0 .5.23.5.5v1.17c0 .12-.05.24-.13.34-.75.79-1.5 1.86-2.23 3.19-.74 1.32-1.32 2.71-1.72 4.11-.29.98-.48 2.07-.56 3.24-.02.26-.23.46-.5.46zm12.36 21.31c-.181.76-.84 1.28-1.61 1.28-.76 0-1.42-.53-1.6-1.29-.7-2.87-2.23-4.02-4.01-5.34-1.27-.97-2.57-1.95-3.52-3.52-1.34-2.22-1.54-4.69-.55-6.95 1.1-2.48 3.46-4.14 5.88-4.14 1.43 0 2.74.55 3.81 1.61 1.061-1.06 2.37-1.61 3.8-1.61 2.421 0 4.771 1.66 5.87 4.14.99 2.25.79 4.72-.55 6.95-.96 1.59-2.3 2.6-3.479 3.49-1.801 1.35-3.351 2.51-4.041 5.38zm12.88 15.14c0 .27-.23.5-.5.5h-7.88c-.28 0-.5-.23-.5-.5v-1.17c0-.12.05-.24.13-.34.75-.79 1.5-1.86 2.229-3.19.74-1.32 1.32-2.71 1.721-4.11.29-.98.479-2.07.56-3.24.02-.26.23-.46.5-.46h1.53c.14 0 .27.05.359.15.091.09.15.22.141.35-.011 1-.21 2.2-.58 3.59s-.9 2.74-1.59 4.03c-.49.92-1 1.74-1.54 2.45h4.92c.27 0 .5.22.5.5z"/></g></svg>