<svg enable-background="new 0 0 64 64" height="512" viewBox="10.7 2 42.7 60"  width="512" xmlns="http://www.w3.org/2000/svg"><g id="Layer_9"><path d="m44.24 4.12h-24.48c-3.59 0-6.5 2.92-6.5 6.5v42.76c0 3.58 2.91 6.5 6.5 6.5h24.48c3.59 0 6.5-2.92 6.5-6.5v-42.76c0-3.58-2.91-6.5-6.5-6.5zm-26.52 15.91c-.27 0-.49-.21-.5-.48-.01-.43.06-.84.21-1.23.22-.6.58-1.19 1.07-1.77.47-.55 1.15-1.19 2.02-1.9 1.28-1.05 2.16-1.89 2.6-2.49.39-.54.6-1.05.6-1.5s-.16-.83-.49-1.14-.75-.47-1.31-.47c-.58 0-1.03.17-1.37.5-.34.34-.5.81-.51 1.45 0 .14-.06.27-.16.37-.11.09-.25.13-.39.12l-1.53-.16c-.28-.03-.48-.27-.45-.54.12-1.27.57-2.27 1.36-2.95.77-.68 1.81-1.02 3.09-1.02 1.29 0 2.34.37 3.12 1.1.78.75 1.17 1.68 1.17 2.77 0 .56-.11 1.1-.34 1.63-.22.52-.58 1.07-1.08 1.63-.48.54-1.25 1.26-2.35 2.19-1.02.86-1.46 1.27-1.65 1.46h4.94c.27 0 .5.22.5.5v1.43c0 .28-.23.5-.5.5zm15.89 21.31c-.181.76-.84 1.28-1.61 1.28-.76 0-1.42-.53-1.6-1.29-.7-2.87-2.23-4.02-4.01-5.34-1.27-.96-2.57-1.95-3.52-3.52-1.34-2.22-1.54-4.69-.55-6.95 1.1-2.48 3.46-4.14 5.88-4.14 1.43 0 2.74.55 3.81 1.61 1.061-1.06 2.37-1.61 3.8-1.61 2.421 0 4.771 1.66 5.87 4.14.99 2.25.79 4.72-.55 6.95-.96 1.59-2.3 2.6-3.479 3.49-1.801 1.35-3.351 2.51-4.041 5.38zm12.96 4.34c-.221.6-.58 1.19-1.07 1.77-.47.55-1.15 1.19-2.02 1.9-1.28 1.05-2.16 1.89-2.601 2.49-.39.54-.6 1.05-.6 1.5s.16.83.489 1.14c.33.31.75.47 1.311.47.58 0 1.03-.17 1.37-.5.34-.34.5-.81.51-1.45 0-.14.06-.27.16-.37.11-.09.25-.13.39-.12l1.53.16c.28.03.479.27.45.54-.12 1.27-.57 2.27-1.36 2.95-.77.68-1.81 1.02-3.09 1.02-1.29 0-2.34-.37-3.12-1.1-.78-.75-1.17-1.68-1.17-2.77 0-.56.11-1.1.34-1.63.22-.52.58-1.07 1.08-1.63.48-.54 1.25-1.26 2.35-2.19 1.021-.86 1.461-1.27 1.65-1.46h-4.939c-.271 0-.5-.22-.5-.5v-1.43c0-.28.229-.5.5-.5h8.05c.27 0 .489.21.5.48.01.43-.06.84-.21 1.23z"/></g></svg>