<svg enable-background="new 0 0 64 64" height="512" viewBox="10.7 2 42.7 60"  width="512" xmlns="http://www.w3.org/2000/svg"><g id="Layer_52"><path d="m44.24 4.12h-24.48c-3.59 0-6.5 2.92-6.5 6.5v42.76c0 3.58 2.91 6.5 6.5 6.5h24.48c3.59 0 6.5-2.92 6.5-6.5v-42.76c0-3.58-2.91-6.5-6.5-6.5zm-25 11.41v4c0 .279-.22.5-.5.5h-1.61c-.27 0-.5-.221-.5-.5v-12.16c0-.28.23-.5.5-.5h1.61c.28 0 .5.22.5.5v4.82l5.19-5.181c.1-.09.22-.14.36-.14h2.18c.2 0 .39.12.46.31.08.19.03.4-.11.54l-4.79 4.63 5.07 6.891c.11.149.13.35.04.52-.08.17-.26.271-.45.271h-2.12c-.16 0-.32-.07-.41-.21l-3.99-5.681zm13.84 26.06c-.18.43-.61.71-1.08.71s-.9-.28-1.08-.71c-1.37-3.21-4.33-6.26-8.32-8.58-.36-.2-.59-.59-.59-1.02 0-.42.23-.82.6-1.021 3.99-2.3 6.94-5.34 8.31-8.56.18-.43.61-.71 1.08-.71s.9.28 1.08.71c1.37 3.22 4.33 6.26 8.32 8.56.36.2.59.601.59 1.021 0 .43-.23.819-.59 1.029-3.99 2.311-6.95 5.361-8.32 8.571zm14.29 15.04c0 .28-.23.5-.5.5h-1.61c-.28 0-.5-.22-.5-.5v-4.82l-5.19 5.181c-.1.09-.22.14-.36.14h-2.18c-.2 0-.39-.12-.46-.31-.08-.19-.03-.4.11-.551l4.79-4.619-5.07-6.891c-.11-.149-.13-.35-.04-.52.08-.17.26-.28.45-.28h2.12c.16 0 .32.08.41.22l3.99 5.681 1.43-1.391v-4.01c0-.27.22-.5.5-.5h1.61c.27 0 .5.23.5.5z"/></g></svg>