<svg enable-background="new 0 0 64 64" height="512" viewBox="10.7 2 42.7 60"  width="512" xmlns="http://www.w3.org/2000/svg"><g id="Layer_10"><path d="m44.24 4.12h-24.48c-3.59 0-6.5 2.92-6.5 6.5v42.76c0 3.58 2.91 6.5 6.5 6.5h24.48c3.59 0 6.5-2.92 6.5-6.5v-42.76c0-3.58-2.91-6.5-6.5-6.5zm-25.44 15.05c-.8-.72-1.26-1.66-1.37-2.8-.029-.27.16-.51.431-.54l1.489-.2c.261-.03.511.14.561.39.149.74.39 1.26.72 1.56.32.29.7.43 1.17.43.57 0 1.04-.19 1.431-.58.39-.39.579-.87.579-1.46 0-.55-.17-.99-.529-1.34-.351-.35-.8-.52-1.36-.52-.229 0-.55.05-.92.15-.16.04-.33 0-.46-.11-.12-.11-.19-.27-.17-.44l.17-1.31c.03-.27.29-.46.55-.44.08.01.141.02.19.02.54 0 1.01-.14 1.439-.42.37-.24.54-.59.54-1.12 0-.41-.13-.73-.399-1-.561-.53-1.61-.54-2.2.02-.311.28-.51.74-.601 1.35-.02.13-.09.25-.199.33-.11.08-.25.11-.38.09l-1.49-.27c-.141-.02-.25-.1-.33-.21-.07-.1-.101-.24-.08-.37.2-1.11.68-2 1.41-2.62.74-.63 1.66-.94 2.74-.94.739 0 1.439.16 2.069.48.641.32 1.141.78 1.48 1.35.34.57.51 1.19.51 1.83 0 .62-.17 1.19-.5 1.71-.16.23-.34.45-.57.64.38.22.71.5.971.84.47.61.699 1.38.699 2.27 0 1.2-.439 2.23-1.31 3.06s-1.98 1.25-3.29 1.25c-1.191 0-2.201-.36-2.991-1.08zm16.7 22.8-6.97.01c-.54 0-1.05-.29-1.32-.76-.38-.66-.24-1.48.33-1.95.22-.19.44-.42.66-.7-1.74.08-3.42-.54-4.641-1.74-1.159-1.13-1.81-2.65-1.859-4.28-.01-.19.01-.67.02-.74.141-1.52.83-2.92 1.95-3.95.65-.64 1.43-1.16 2.48-1.83 1.71-1.09 3.649-2.32 4.38-4.89.18-.66.79-1.12 1.479-1.12.681 0 1.29.47 1.471 1.13.729 2.56 2.67 3.8 4.39 4.89.95.61 1.8 1.15 2.51 1.85 1.08 1.01 1.76 2.41 1.9 3.92.01.04.02.78.02.83-.109 3.42-3.01 6.1-6.49 5.93.2.25.4.47.591.64.369.23.63.72.63 1.23-.001.84-.691 1.53-1.531 1.53zm10.64 6.2-1.489.2c-.261.04-.511-.14-.561-.39-.149-.74-.39-1.26-.72-1.56-.32-.29-.7-.43-1.17-.43-.57 0-1.04.19-1.431.58-.39.39-.579.87-.579 1.46 0 .55.17.99.529 1.34.351.35.8.52 1.36.52.229 0 .55-.05.92-.15.16-.04.33 0 .46.11.12.11.19.27.17.44l-.17 1.31c-.04.27-.3.46-.55.44-.08-.01-.141-.02-.19-.02-.54 0-1.01.14-1.439.42-.37.24-.54.59-.54 1.12 0 .41.13.73.399 1 .561.53 1.61.54 2.2-.02.311-.28.51-.74.601-1.35.02-.13.09-.25.199-.33.11-.08.25-.11.38-.09l1.49.27c.141.02.25.1.33.21.07.1.101.24.08.37-.2 1.11-.68 2-1.41 2.62-.74.63-1.66.94-2.74.94-.739 0-1.439-.16-2.069-.48-.641-.32-1.141-.78-1.48-1.35-.34-.57-.51-1.19-.51-1.83 0-.62.17-1.19.5-1.71.16-.23.34-.45.57-.64-.38-.22-.71-.5-.971-.84-.47-.61-.699-1.38-.699-2.27 0-1.2.439-2.23 1.31-3.06s1.98-1.25 3.29-1.25c1.19 0 2.2.36 2.99 1.08.8.72 1.26 1.66 1.37 2.8.03.27-.16.51-.43.54z"/></g></svg>