<svg enable-background="new 0 0 64 64" height="512" viewBox="10.7 2 42.7 60"  width="512" xmlns="http://www.w3.org/2000/svg"><g id="Layer_8"><path d="m44.24 4.12h-24.48c-3.59 0-6.5 2.92-6.5 6.5v42.76c0 3.58 2.91 6.5 6.5 6.5h24.48c3.59 0 6.5-2.92 6.5-6.5v-42.76c0-3.58-2.91-6.5-6.5-6.5zm-26.52 15.91c-.27 0-.49-.21-.5-.48-.01-.43.06-.84.21-1.23.22-.6.58-1.19 1.07-1.77.47-.55 1.15-1.19 2.02-1.9 1.28-1.05 2.16-1.89 2.6-2.49.39-.54.6-1.05.6-1.5s-.16-.83-.49-1.14-.75-.47-1.31-.47c-.58 0-1.03.17-1.37.5-.34.34-.5.81-.51 1.45 0 .14-.06.27-.16.37-.11.09-.25.13-.39.12l-1.53-.16c-.28-.03-.48-.27-.45-.54.12-1.27.57-2.27 1.36-2.95.77-.68 1.81-1.02 3.09-1.02 1.29 0 2.34.37 3.12 1.1.78.75 1.17 1.68 1.17 2.77 0 .56-.11 1.1-.34 1.63-.22.52-.58 1.07-1.08 1.63-.48.54-1.25 1.26-2.35 2.19-1.02.86-1.46 1.27-1.65 1.46h4.94c.27 0 .5.22.5.5v1.43c0 .28-.23.5-.5.5zm15.36 21.56c-.18.43-.61.71-1.08.71s-.9-.28-1.08-.71c-1.37-3.21-4.33-6.26-8.32-8.58-.36-.2-.59-.59-.59-1.02 0-.42.23-.82.6-1.02 3.99-2.3 6.94-5.34 8.31-8.56.18-.43.61-.71 1.08-.71s.9.28 1.08.71c1.37 3.22 4.32 6.26 8.32 8.56.36.2.59.59.59 1.02s-.23.82-.59 1.03c-3.99 2.31-6.95 5.36-8.32 8.57zm13.49 4.09c-.22.6-.58 1.19-1.07 1.77-.47.55-1.15 1.19-2.02 1.9-1.28 1.05-2.16 1.89-2.6 2.49-.39.54-.6 1.05-.6 1.5s.16.83.49 1.14.75.47 1.31.47c.58 0 1.03-.17 1.37-.5.34-.34.5-.81.51-1.45 0-.14.06-.27.16-.37.11-.09.25-.13.39-.12l1.53.16c.28.03.48.27.45.54-.12 1.27-.57 2.27-1.36 2.95-.77.68-1.81 1.02-3.09 1.02-1.29 0-2.34-.37-3.12-1.1-.78-.75-1.17-1.68-1.17-2.77 0-.56.11-1.1.34-1.63.22-.52.58-1.07 1.08-1.63.48-.54 1.25-1.26 2.35-2.19 1.02-.86 1.46-1.27 1.65-1.46h-4.94c-.27 0-.5-.22-.5-.5v-1.43c0-.28.23-.5.5-.5h8.05c.27 0 .49.21.5.48.01.43-.06.84-.21 1.23z"/></g></svg>