<svg enable-background="new 0 0 64 64" height="512" viewBox="10.7 2 42.7 60"  width="512" xmlns="http://www.w3.org/2000/svg"><g id="Layer_26"><path d="m44.24 4.12h-24.48c-3.59 0-6.5 2.92-6.5 6.5v42.76c0 3.58 2.91 6.5 6.5 6.5h24.48c3.59 0 6.5-2.92 6.5-6.5v-42.76c0-3.58-2.91-6.5-6.5-6.5zm-22.99 15.91h-1.53c-.14 0-.27-.05-.359-.15-.091-.09-.15-.22-.141-.35.011-1 .21-2.2.58-3.59s.9-2.74 1.59-4.03c.49-.92 1-1.74 1.54-2.45h-4.92c-.27 0-.5-.22-.5-.5v-1.44c0-.27.23-.5.5-.5h7.88c.28 0 .5.23.5.5v1.17c0 .12-.05.25-.13.34-.75.79-1.5 1.86-2.229 3.19-.74 1.32-1.32 2.71-1.721 4.11-.29.98-.479 2.07-.56 3.24-.02.26-.23.46-.5.46zm14.25 21.94-6.97.01c-.54 0-1.05-.29-1.32-.76-.38-.66-.24-1.48.33-1.95.22-.19.44-.42.66-.7-1.74.08-3.42-.54-4.641-1.74-1.159-1.13-1.81-2.65-1.859-4.28-.01-.19.01-.67.02-.74.141-1.52.83-2.92 1.95-3.95.65-.64 1.43-1.16 2.48-1.83 1.71-1.09 3.649-2.32 4.38-4.89.18-.66.79-1.12 1.479-1.12.681 0 1.29.47 1.471 1.13.729 2.56 2.67 3.8 4.39 4.89.95.61 1.8 1.15 2.51 1.85 1.08 1.01 1.76 2.41 1.9 3.92.01.04.02.78.02.83-.109 3.42-3.01 6.11-6.49 5.93.2.25.4.47.591.64.369.23.63.72.63 1.23-.001.84-.691 1.53-1.531 1.53zm10.99 14.51c0 .27-.23.5-.5.5h-7.88c-.28 0-.5-.23-.5-.5v-1.17c0-.12.05-.25.13-.34.75-.79 1.5-1.86 2.229-3.19.74-1.32 1.32-2.71 1.721-4.11.29-.98.479-2.07.56-3.24.02-.26.23-.46.5-.46h1.53c.14 0 .27.05.359.15.091.09.15.22.141.35-.011 1-.21 2.2-.58 3.59s-.9 2.74-1.59 4.03c-.49.92-1 1.74-1.54 2.45h4.92c.27 0 .5.22.5.5z"/></g></svg>