<svg enable-background="new 0 0 64 64" height="512" viewBox="10.7 2 42.7 60"  width="512" xmlns="http://www.w3.org/2000/svg"><g id="Layer_53"><path d="m44.24 4.12h-24.48c-3.59 0-6.5 2.92-6.5 6.5v42.76c0 3.58 2.91 6.5 6.5 6.5h24.48c3.59 0 6.5-2.92 6.5-6.5v-42.76c0-3.58-2.91-6.5-6.5-6.5zm-25 11.41v4c0 .279-.22.5-.5.5h-1.61c-.27 0-.5-.221-.5-.5v-12.16c0-.28.23-.5.5-.5h1.61c.28 0 .5.22.5.5v4.82l5.19-5.181c.1-.09.22-.14.36-.14h2.18c.2 0 .39.12.46.31.08.19.03.4-.11.54l-4.79 4.63 5.07 6.891c.11.149.13.35.04.52-.08.17-.26.271-.45.271h-2.12c-.16 0-.32-.07-.41-.21l-3.99-5.681zm14.37 25.81c-.181.76-.84 1.28-1.61 1.28-.76 0-1.42-.53-1.6-1.29-.7-2.87-2.23-4.021-4.01-5.34-1.27-.971-2.57-1.95-3.52-3.521-1.34-2.22-1.54-4.689-.55-6.95 1.1-2.479 3.46-4.14 5.88-4.14 1.43 0 2.74.55 3.81 1.61 1.061-1.061 2.37-1.61 3.8-1.61 2.421 0 4.771 1.66 5.87 4.14.99 2.25.79 4.721-.55 6.95-.96 1.59-2.3 2.601-3.479 3.49-1.801 1.351-3.351 2.511-4.041 5.381zm13.76 15.29c0 .28-.23.5-.5.5h-1.61c-.279 0-.5-.22-.5-.5v-4.82l-5.19 5.18c-.101.09-.221.14-.36.14h-2.18c-.2 0-.391-.12-.46-.31-.08-.19-.03-.4.109-.551l4.79-4.619-5.069-6.89c-.11-.149-.131-.35-.04-.52.08-.17.26-.28.449-.28h2.12c.16 0 .32.08.41.22l3.99 5.681 1.43-1.391v-4.01c0-.27.221-.5.5-.5h1.61c.27 0 .5.23.5.5v12.17z"/></g></svg>