<svg enable-background="new 0 0 64 64" height="512" viewBox="10.7 2 42.7 60"  width="512" xmlns="http://www.w3.org/2000/svg"><g id="Layer_28"><path d="m44.24 4.12h-24.48c-3.59 0-6.5 2.92-6.5 6.5v42.76c0 3.58 2.91 6.5 6.5 6.5h24.48c3.59 0 6.5-2.92 6.5-6.5v-42.76c0-3.58-2.91-6.5-6.5-6.5zm-22.99 15.91h-1.53c-.14 0-.27-.05-.36-.15-.09-.09-.15-.22-.14-.35.01-1 .21-2.2.58-3.59.36-1.39.9-2.74 1.59-4.03.49-.92 1-1.74 1.54-2.45h-4.92c-.27 0-.5-.22-.5-.5v-1.44c0-.27.23-.5.5-.5h7.88c.28 0 .5.23.5.5v1.17c0 .12-.05.24-.13.34-.75.79-1.5 1.86-2.23 3.19-.74 1.32-1.32 2.71-1.72 4.11-.29.98-.48 2.07-.56 3.24-.02.26-.23.46-.5.46zm11.83 21.56c-.18.43-.61.71-1.08.71s-.9-.28-1.08-.71c-1.37-3.21-4.33-6.26-8.32-8.58-.36-.2-.59-.59-.59-1.02 0-.42.23-.82.6-1.02 3.99-2.3 6.94-5.34 8.31-8.56.18-.43.61-.71 1.08-.71s.9.28 1.08.71c1.37 3.22 4.33 6.26 8.32 8.56.36.2.59.59.59 1.02s-.23.82-.59 1.03c-3.99 2.31-6.95 5.36-8.32 8.57zm13.41 14.89c0 .27-.23.5-.5.5h-7.88c-.28 0-.5-.23-.5-.5v-1.17c0-.12.05-.24.13-.34.75-.79 1.5-1.86 2.23-3.19.74-1.32 1.32-2.71 1.72-4.11.29-.98.48-2.07.56-3.24.02-.26.23-.46.5-.46h1.53c.14 0 .27.05.36.15.09.09.15.22.14.35-.01 1-.21 2.2-.58 3.59-.36 1.39-.9 2.74-1.59 4.03-.49.92-1 1.74-1.54 2.45h4.92c.27 0 .5.22.5.5z"/></g></svg>