<svg enable-background="new 0 0 64 64" height="512" viewBox="10.7 2 42.7 60"  width="512" xmlns="http://www.w3.org/2000/svg"><g id="Layer_17"><path d="m44.24 4.12h-24.48c-3.59 0-6.5 2.92-6.5 6.5v42.76c0 3.58 2.91 6.5 6.5 6.5h24.48c3.59 0 6.5-2.92 6.5-6.5v-42.76c0-3.58-2.91-6.5-6.5-6.5zm-26.81 13c-.28 0-.5-.22-.5-.5v-1.37c0-.1.03-.2.09-.29l5.55-7.88c.09-.14.25-.21.41-.21h1.22c.28 0 .5.22.5.5v7.38h1.14c.28 0 .5.22.5.5v1.37c0 .28-.22.5-.5.5h-1.14v2.41c0 .28-.22.5-.5.5h-1.49c-.28 0-.5-.22-.5-.5v-2.41zm16.17 24.22c-.17.76-.83 1.28-1.6 1.28-.76 0-1.42-.53-1.6-1.29-.7-2.87-2.23-4.02-4.01-5.34-1.27-.96-2.57-1.95-3.52-3.52-1.34-2.22-1.54-4.69-.55-6.95 1.1-2.48 3.46-4.14 5.88-4.14 1.43 0 2.74.55 3.81 1.61 1.06-1.06 2.37-1.61 3.8-1.61 2.42 0 4.78 1.66 5.87 4.14.99 2.25.79 4.72-.55 6.95-.96 1.59-2.3 2.6-3.48 3.49-1.8 1.35-3.35 2.51-4.05 5.38zm13.47 7.41c0 .1-.03.2-.09.29l-5.55 7.88c-.09.14-.25.21-.41.21h-1.22c-.28 0-.5-.22-.5-.5v-7.38h-1.14c-.28 0-.5-.22-.5-.5v-1.37c0-.28.22-.5.5-.5h1.14v-2.41c0-.28.22-.5.5-.5h1.49c.28 0 .5.22.5.5v2.41h4.78c.28 0 .5.22.5.5z"/><path d="m41.79 52.64 2.36-3.39h-2.36z"/><path d="m22.21 11.36-2.36 3.39h2.36z"/></g></svg>