<svg enable-background="new 0 0 64 64" height="512" viewBox="10.7 2 42.7 60"  width="512" xmlns="http://www.w3.org/2000/svg"><g id="Layer_11"><path d="m44.24 4.12h-24.48c-3.59 0-6.5 2.92-6.5 6.5v42.76c0 3.58 2.91 6.5 6.5 6.5h24.48c3.59 0 6.5-2.92 6.5-6.5v-42.76c0-3.58-2.91-6.5-6.5-6.5zm1.9 44.05-1.489.2c-.261.04-.511-.14-.561-.39-.149-.74-.39-1.26-.72-1.56-.32-.29-.7-.43-1.17-.43-.57 0-1.04.19-1.431.58-.39.39-.579.87-.579 1.46 0 .55.17.99.529 1.34.351.35.8.52 1.36.52.229 0 .55-.05.92-.15.16-.04.33 0 .46.11.12.11.19.27.17.44l-.17 1.31c-.04.27-.3.46-.55.44-.08-.01-.141-.02-.19-.02-.54 0-1.01.14-1.439.42-.37.24-.54.59-.54 1.12 0 .41.13.73.399 1 .561.53 1.61.54 2.2-.02.311-.28.51-.74.601-1.35.02-.13.09-.25.199-.33.11-.08.25-.11.38-.09l1.49.27c.141.02.25.1.33.21.07.1.101.24.08.37-.2 1.11-.68 2-1.41 2.62-.74.63-1.66.94-2.74.94-.739 0-1.439-.16-2.069-.48-.641-.32-1.141-.78-1.48-1.35-.34-.57-.51-1.19-.51-1.83 0-.62.17-1.19.5-1.71.16-.23.34-.45.57-.64-.38-.22-.71-.5-.971-.84-.47-.61-.699-1.38-.699-2.27 0-1.2.439-2.23 1.31-3.06s1.98-1.25 3.29-1.25c1.19 0 2.2.36 2.99 1.08.8.72 1.26 1.66 1.37 2.8.03.27-.16.51-.43.54zm-28.71-31.8c-.029-.27.16-.51.431-.54l1.489-.2c.261-.03.511.14.561.39.149.74.39 1.26.72 1.56.32.29.7.43 1.17.43.57 0 1.04-.19 1.431-.58.39-.39.579-.87.579-1.46 0-.55-.17-.99-.529-1.34-.351-.35-.8-.52-1.36-.52-.229 0-.55.05-.92.15-.16.04-.33 0-.46-.11-.12-.11-.19-.27-.17-.44l.17-1.31c.03-.27.29-.46.55-.44.08.01.141.02.19.02.54 0 1.01-.14 1.439-.42.37-.24.54-.59.54-1.12 0-.41-.13-.73-.399-1-.561-.53-1.61-.54-2.2.02-.311.28-.51.74-.601 1.35-.02.13-.09.25-.199.33-.11.08-.25.11-.38.09l-1.49-.27c-.141-.02-.25-.1-.33-.21-.07-.1-.101-.24-.08-.37.2-1.11.68-2 1.41-2.62.74-.63 1.66-.94 2.74-.94.739 0 1.439.16 2.069.48.641.32 1.141.78 1.48 1.35.34.57.51 1.19.51 1.83 0 .62-.17 1.19-.5 1.71-.16.23-.34.45-.57.64.38.22.71.5.971.84.47.61.699 1.38.699 2.27 0 1.2-.439 2.23-1.31 3.06s-1.98 1.25-3.29 1.25c-1.19 0-2.2-.36-2.99-1.08-.801-.72-1.261-1.66-1.371-2.8zm18.7 24.57c.22.12.39.43.39.76 0 .52-.42.94-.949.94h-7.141c-.33 0-.64-.17-.81-.46-.24-.4-.15-.9.2-1.2.58-.5 1.13-1.19 1.63-2.05-1.19.36-2.49.35-3.69-.09-2.229-.84-3.72-2.99-3.72-5.36 0-2.6 1.82-4.9 4.3-5.55-.22-1.39.11-2.81.95-4.04 1.08-1.58 2.84-2.52 4.7-2.53 1.859.01 3.62.95 4.7 2.53.85 1.23 1.18 2.65.96 4.04 2.489.65 4.31 2.95 4.31 5.55 0 2.37-1.5 4.52-3.74 5.35-1.18.45-2.5.46-3.68.09.48.85 1.01 1.51 1.59 2.02z"/></g></svg>