<svg enable-background="new 0 0 64 64" height="512" viewBox="10.7 2 42.7 60"  width="512" xmlns="http://www.w3.org/2000/svg"><g id="Layer_6"><path d="m44.24 4.12h-24.48c-3.59 0-6.5 2.92-6.5 6.5v42.76c0 3.58 2.91 6.5 6.5 6.5h24.48c3.59 0 6.5-2.92 6.5-6.5v-42.76c0-3.58-2.91-6.5-6.5-6.5zm-26.52 15.91c-.27 0-.489-.21-.5-.48-.01-.43.061-.84.21-1.23.221-.6.58-1.19 1.07-1.77.47-.55 1.15-1.19 2.02-1.9 1.28-1.05 2.16-1.89 2.601-2.49.39-.54.6-1.05.6-1.5s-.16-.83-.489-1.14c-.33-.31-.75-.47-1.311-.47-.58 0-1.03.17-1.37.5-.34.34-.5.81-.51 1.45 0 .14-.06.27-.16.37-.11.09-.25.13-.39.12l-1.53-.16c-.28-.03-.479-.27-.45-.54.12-1.27.57-2.27 1.36-2.95.77-.68 1.81-1.02 3.09-1.02 1.29 0 2.34.37 3.12 1.1.78.75 1.17 1.68 1.17 2.77 0 .56-.11 1.1-.34 1.63-.22.52-.58 1.07-1.08 1.63-.48.54-1.25 1.26-2.35 2.19-1.021.86-1.461 1.27-1.651 1.46h4.939c.271 0 .5.22.5.5v1.43c0 .28-.229.5-.5.5zm17.78 21.94-6.97.01c-.54 0-1.05-.29-1.32-.76-.38-.66-.24-1.48.33-1.95.22-.19.44-.42.66-.7-1.74.08-3.42-.54-4.641-1.74-1.159-1.13-1.81-2.65-1.859-4.28-.01-.19.01-.67.02-.74.141-1.52.83-2.92 1.95-3.95.65-.64 1.43-1.16 2.48-1.83 1.71-1.09 3.649-2.32 4.38-4.89.18-.66.79-1.12 1.479-1.12.681 0 1.29.47 1.471 1.13.729 2.56 2.67 3.8 4.39 4.89.95.61 1.8 1.15 2.51 1.85 1.08 1.01 1.76 2.41 1.9 3.92.01.04.02.78.02.83-.109 3.42-3.01 6.1-6.49 5.93.2.25.4.47.591.64.369.23.63.72.63 1.23-.001.84-.691 1.53-1.531 1.53zm11.07 3.71c-.221.6-.58 1.19-1.07 1.77-.47.55-1.15 1.19-2.02 1.9-1.28 1.05-2.16 1.89-2.601 2.49-.39.54-.6 1.05-.6 1.5s.16.83.489 1.14c.33.31.75.47 1.311.47.58 0 1.03-.17 1.37-.5.34-.34.5-.81.51-1.45 0-.14.06-.27.16-.37.11-.09.25-.13.39-.12l1.53.16c.28.03.479.27.45.54-.12 1.27-.57 2.27-1.36 2.95-.77.68-1.81 1.02-3.09 1.02-1.29 0-2.34-.37-3.12-1.1-.78-.75-1.17-1.68-1.17-2.77 0-.56.11-1.1.34-1.63.22-.52.58-1.07 1.08-1.63.48-.54 1.25-1.26 2.35-2.19 1.021-.86 1.461-1.27 1.65-1.46h-4.939c-.271 0-.5-.22-.5-.5v-1.43c0-.28.229-.5.5-.5h8.05c.27 0 .489.21.5.48.01.43-.06.84-.21 1.23z"/></g></svg>