<svg enable-background="new 0 0 64 64" height="512" viewBox="10.7 2 42.7 60"  width="512" xmlns="http://www.w3.org/2000/svg"><g id="Layer_18"><path d="m44.24 4.12h-24.48c-3.59 0-6.5 2.92-6.5 6.5v42.76c0 3.58 2.91 6.5 6.5 6.5h24.48c3.59 0 6.5-2.92 6.5-6.5v-42.76c0-3.58-2.91-6.5-6.5-6.5zm-25.46 15.07c-.79-.71-1.25-1.65-1.36-2.79-.02-.14.03-.27.11-.37.09-.11.21-.17.34-.18l1.57-.13c.27-.03.5.16.54.42.1.64.32 1.12.65 1.43.33.3.72.44 1.2.44.57 0 1.05-.21 1.45-.65.42-.45.62-1.04.62-1.82 0-.72-.19-1.27-.58-1.67-.38-.39-.88-.58-1.52-.58-.4 0-.74.08-1.06.26-.31.18-.55.4-.73.68-.11.17-.3.25-.49.23l-1.4-.18c-.14-.02-.26-.09-.34-.2-.08-.12-.12-.26-.09-.39l1.18-6.25c.04-.24.25-.41.49-.41h6.05c.28 0 .5.22.5.5v1.43c0 .28-.22.5-.5.5h-4.44l-.37 1.82c.52-.21 1.05-.31 1.6-.31 1.19 0 2.22.42 3.04 1.25.83.83 1.24 1.9 1.24 3.19 0 1.21-.36 2.28-1.07 3.17-.87 1.1-2.08 1.66-3.58 1.66-1.23 0-2.25-.35-3.05-1.05zm16.72 22.78-6.97.01c-.54 0-1.05-.29-1.32-.76-.38-.66-.24-1.48.33-1.95.22-.19.44-.42.66-.7-1.74.09-3.42-.54-4.64-1.74-1.16-1.13-1.81-2.65-1.86-4.28-.01-.19.01-.67.02-.74.14-1.52.83-2.92 1.95-3.95.65-.64 1.43-1.16 2.48-1.83 1.71-1.09 3.65-2.32 4.38-4.89.18-.66.79-1.12 1.48-1.12.68 0 1.29.47 1.47 1.13.73 2.56 2.67 3.8 4.39 4.89.95.61 1.8 1.15 2.51 1.85 1.08 1.01 1.76 2.41 1.9 3.92.01.04.02.78.02.83-.11 3.42-3.01 6.11-6.49 5.93.2.25.4.47.59.64.37.23.63.72.63 1.23 0 .84-.69 1.53-1.53 1.53zm10.97 6c-.09.11-.21.17-.34.18l-1.57.13c-.26.03-.5-.16-.54-.42-.1-.64-.32-1.12-.65-1.43-.33-.3-.72-.44-1.2-.44-.57 0-1.05.21-1.45.65-.42.45-.62 1.04-.62 1.82 0 .72.19 1.27.58 1.67.38.39.88.58 1.52.58.4 0 .74-.08 1.06-.26.31-.18.55-.4.73-.68.11-.17.3-.26.49-.23l1.4.18c.14.02.26.09.34.2.08.12.12.26.09.39l-1.18 6.25c-.04.24-.25.41-.49.41h-6.05c-.28 0-.5-.22-.5-.5v-1.43c0-.28.22-.5.5-.5h4.44l.37-1.82c-.52.21-1.05.31-1.6.31-1.19 0-2.22-.42-3.04-1.25-.83-.83-1.24-1.9-1.24-3.19 0-1.21.36-2.28 1.07-3.17.87-1.1 2.08-1.66 3.58-1.66 1.23 0 2.25.35 3.05 1.05.79.71 1.25 1.65 1.36 2.79.02.14-.03.27-.11.37z"/></g></svg>