<svg enable-background="new 0 0 64 64" height="512" viewBox="10.7 2 42.7 60"  width="512" xmlns="http://www.w3.org/2000/svg"><g id="Layer_45"><path d="m44.24 4.12h-24.48c-3.59 0-6.5 2.92-6.5 6.5v42.76c0 3.58 2.91 6.5 6.5 6.5h24.48c3.59 0 6.5-2.92 6.5-6.5v-42.76c0-3.58-2.91-6.5-6.5-6.5zm-26.09 15.04c-.65-.71-.971-1.75-.95-3.09.01-.24.189-.45.43-.48l1.45-.2c.15-.02.29.021.39.11.11.09.181.22.181.36.05 1.06.27 1.449.399 1.6.21.23.51.35.91.35.31 0 .57-.069.78-.21.2-.119.33-.279.399-.489.07-.181.141-.57.141-1.36v-8.381c0-.28.22-.5.5-.5h1.609c.28 0 .5.22.5.5v8.29c0 1.1-.14 1.939-.409 2.56-.29.66-.761 1.17-1.391 1.521-.6.33-1.32.5-2.12.5-1.209-.001-2.159-.361-2.819-1.081zm15.46 22.18c-.18.76-.84 1.28-1.61 1.28-.76 0-1.42-.53-1.6-1.29-.7-2.87-2.23-4.021-4.011-5.34-1.27-.971-2.569-1.95-3.52-3.521-1.34-2.22-1.54-4.689-.55-6.95 1.1-2.479 3.46-4.14 5.88-4.14 1.43 0 2.74.55 3.81 1.61 1.061-1.061 2.37-1.61 3.8-1.61 2.421 0 4.771 1.66 5.87 4.14.99 2.25.79 4.721-.55 6.95-.96 1.59-2.3 2.601-3.479 3.49-1.8 1.351-3.35 2.511-4.04 5.381zm12.76 7.07-1.45.2c-.15.02-.29-.021-.39-.11-.11-.09-.181-.22-.181-.36-.05-1.06-.27-1.449-.399-1.6-.21-.23-.51-.35-.91-.35-.31 0-.57.069-.78.21-.2.119-.33.279-.399.489-.07.181-.141.57-.141 1.36v8.38c0 .28-.22.5-.5.5h-1.61c-.28 0-.5-.22-.5-.5v-8.29c0-1.1.14-1.939.409-2.56.29-.66.761-1.17 1.391-1.521.6-.33 1.32-.5 2.12-.5 1.21 0 2.16.36 2.819 1.08.65.71.971 1.75.95 3.09-.009.242-.189.452-.429.482z"/></g></svg>