<svg enable-background="new 0 0 64 64" height="512" viewBox="10.7 2 42.7 60"  width="512" xmlns="http://www.w3.org/2000/svg"><g id="Layer_16"><path d="m44.24 4.12h-24.48c-3.59 0-6.5 2.92-6.5 6.5v42.76c0 3.58 2.91 6.5 6.5 6.5h24.48c3.59 0 6.5-2.92 6.5-6.5v-42.76c0-3.58-2.91-6.5-6.5-6.5zm2.83 44.63c0 .1-.03.2-.09.29l-5.551 7.88c-.09.14-.25.21-.41.21h-1.219c-.28 0-.5-.22-.5-.5v-7.38h-1.14c-.28 0-.5-.22-.5-.5v-1.37c0-.28.22-.5.5-.5h1.14v-2.41c0-.28.22-.5.5-.5h1.49c.28 0 .5.22.5.5v2.41h4.78c.279 0 .5.22.5.5zm-30.14-32.13v-1.37c0-.1.03-.2.09-.29l5.551-7.88c.09-.14.25-.21.41-.21h1.22c.28 0 .5.22.5.5v7.38h1.14c.28 0 .5.22.5.5v1.37c0 .28-.22.5-.5.5h-1.141v2.41c0 .28-.22.5-.5.5h-1.49c-.28 0-.5-.22-.5-.5v-2.41h-4.78c-.28 0-.5-.22-.5-.5zm5.68 14.35c3.989-2.3 6.939-5.34 8.31-8.56.19-.43.61-.71 1.08-.71s.89.28 1.08.71c1.37 3.22 4.33 6.26 8.32 8.56.359.2.59.59.59 1.02s-.23.82-.59 1.03c-3.99 2.31-6.95 5.36-8.32 8.57-.18.43-.61.71-1.08.71s-.9-.28-1.08-.71c-1.37-3.21-4.33-6.26-8.32-8.58-.359-.2-.59-.59-.59-1.02 0-.42.23-.82.6-1.02z"/><path d="m41.79 52.64 2.36-3.39h-2.36z"/><path d="m22.21 11.36-2.36 3.39h2.36z"/></g></svg>