<svg enable-background="new 0 0 64 64" height="512" viewBox="10.7 2 42.7 60"  width="512" xmlns="http://www.w3.org/2000/svg"><g id="Layer_43"><path d="m44.24 4.12h-24.48c-3.59 0-6.5 2.92-6.5 6.5v42.76c0 3.58 2.91 6.5 6.5 6.5h24.48c3.59 0 6.5-2.92 6.5-6.5v-42.76c0-3.58-2.91-6.5-6.5-6.5zm-26.09 15.04c-.65-.71-.97-1.75-.95-3.09.01-.24.19-.45.43-.48l1.45-.2c.14-.02.29.021.39.11.11.09.18.22.18.36.05 1.06.27 1.449.4 1.6.21.23.51.35.91.35.31 0 .57-.069.78-.21.2-.119.33-.279.4-.489.07-.181.14-.57.14-1.36v-8.381c0-.28.22-.5.5-.5h1.61c.28 0 .5.22.5.5v8.29c0 1.1-.14 1.939-.41 2.56-.29.66-.76 1.17-1.39 1.521-.6.33-1.32.5-2.12.5-1.21-.001-2.16-.361-2.82-1.081zm17.98 21.78c.22.119.39.43.39.76 0 .52-.42.939-.949.939h-7.14c-.33 0-.64-.18-.81-.46-.24-.399-.15-.899.2-1.199.58-.5 1.13-1.19 1.63-2.051-1.18.36-2.49.351-3.69-.1-2.23-.83-3.72-2.98-3.72-5.35 0-2.601 1.81-4.9 4.3-5.551-.22-1.39.11-2.81.95-4.04 1.08-1.58 2.84-2.52 4.7-2.529 1.859.01 3.62.949 4.7 2.529.85 1.23 1.18 2.65.96 4.04 2.489.65 4.31 2.95 4.31 5.551 0 2.369-1.5 4.52-3.74 5.35-1.18.45-2.5.47-3.68.09.479.851 1.009 1.511 1.589 2.021zm10.24 7.47-1.45.2c-.15.02-.29-.021-.39-.11-.11-.09-.181-.22-.181-.36-.05-1.06-.27-1.449-.399-1.6-.21-.23-.51-.35-.91-.35-.31 0-.57.069-.78.21-.2.119-.33.279-.399.489-.07.181-.141.57-.141 1.36v8.38c0 .28-.22.5-.5.5h-1.61c-.28 0-.5-.22-.5-.5v-8.29c0-1.1.14-1.939.409-2.56.29-.66.761-1.17 1.391-1.521.6-.33 1.32-.5 2.12-.5 1.21 0 2.16.36 2.819 1.08.65.71.971 1.75.95 3.09-.009.242-.189.452-.429.482z"/></g></svg>