<svg enable-background="new 0 0 64 64" height="512" viewBox="10.7 2 42.7 60"  width="512" xmlns="http://www.w3.org/2000/svg"><g id="Layer_46"><path d="m44.24 4.12h-24.48c-3.59 0-6.5 2.92-6.5 6.5v42.76c0 3.58 2.91 6.5 6.5 6.5h24.48c3.59 0 6.5-2.92 6.5-6.5v-42.76c0-3.58-2.91-6.5-6.5-6.5zm-25.08 15.26c-.97-.58-1.73-1.41-2.26-2.45-.52-1.029-.78-2.199-.78-3.479 0-1.271.26-2.45.78-3.5.53-1.07 1.3-1.9 2.28-2.46.97-.561 2.07-.84 3.27-.84 1.21 0 2.31.29 3.29.869.98.58 1.74 1.41 2.26 2.45.5 1.03.76 2.19.76 3.471 0 1.06-.17 2.029-.49 2.88-.26.67-.62 1.279-1.08 1.819.53.33 1.02.58 1.48.75.12.051.23.15.28.271.05.13.05.27 0 .39l-.47 1.12c-.08.2-.27.311-.46.311-.06 0-.12-.011-.17-.03-.84-.3-1.67-.76-2.5-1.37-.9.439-1.88.66-2.94.66-1.18-.002-2.28-.292-3.25-.862zm8.05 21.84c-.38-.66-.24-1.479.33-1.95.22-.189.44-.42.66-.699-1.74.09-3.42-.54-4.64-1.74-1.16-1.13-1.81-2.65-1.86-4.28-.01-.189.01-.67.02-.74.14-1.52.83-2.92 1.95-3.949.65-.641 1.43-1.16 2.48-1.83 1.71-1.09 3.65-2.32 4.38-4.891.18-.659.79-1.12 1.48-1.12.68 0 1.29.471 1.47 1.131.73 2.56 2.67 3.8 4.39 4.89.95.61 1.8 1.15 2.51 1.85 1.08 1.011 1.76 2.41 1.9 3.92.01.04.02.78.02.83-.11 3.42-3.02 6.091-6.49 5.931.2.25.4.47.59.64.37.23.63.72.63 1.23 0 .84-.69 1.529-1.53 1.529l-6.97.011c-.54-.003-1.05-.293-1.32-.763zm19.89 12.83c-.53 1.07-1.3 1.9-2.28 2.46-.97.561-2.07.84-3.27.84-1.21 0-2.31-.29-3.29-.869-.98-.58-1.74-1.41-2.26-2.45-.5-1.03-.76-2.19-.76-3.471 0-1.06.17-2.029.49-2.88.26-.67.62-1.279 1.08-1.819-.53-.33-1.02-.58-1.48-.75-.12-.051-.23-.15-.28-.271-.05-.13-.05-.27 0-.39l.47-1.12c.11-.25.39-.37.63-.28.84.3 1.67.76 2.5 1.37.9-.439 1.88-.66 2.94-.66 1.18 0 2.28.29 3.25.86.97.58 1.73 1.41 2.26 2.45.52 1.029.78 2.199.78 3.479 0 1.271-.26 2.451-.78 3.501z"/><path d="m22.37 17.83c-.14-.04-.25-.12-.32-.25-.07-.12-.08-.26-.04-.4l.39-1.17c.09-.25.35-.39.61-.319.82.229 1.53.56 2.12.97.64-.75.97-1.84.97-3.22 0-.91-.16-1.71-.46-2.37-.3-.65-.72-1.141-1.28-1.5-.56-.36-1.2-.53-1.9-.53-1.07 0-1.93.35-2.63 1.08-.7.72-1.05 1.84-1.05 3.33 0 1.439.35 2.56 1.04 3.3.7.76 1.59 1.1 2.68 1.11-.04-.011-.09-.021-.13-.031z"/><path d="m41.495 46.14c.04.011.09.021.13.03.14.04.25.12.32.25.07.12.08.26.04.4l-.39 1.17c-.09.25-.35.39-.61.319-.82-.229-1.53-.56-2.12-.97-.64.75-.97 1.84-.97 3.22 0 .91.16 1.71.46 2.37.3.65.72 1.141 1.28 1.5.56.36 1.2.53 1.9.53 1.07 0 1.93-.35 2.63-1.08.7-.72 1.05-1.84 1.05-3.33 0-1.439-.35-2.56-1.04-3.3-.7-.759-1.58-1.149-2.68-1.109z"/></g></svg>