<svg enable-background="new 0 0 64 64" height="512" viewBox="10.7 2 42.7 60"  width="512" xmlns="http://www.w3.org/2000/svg"><g id="Layer_54"><path d="m44.24 4.12h-24.48c-3.59 0-6.5 2.92-6.5 6.5v42.76c0 3.58 2.91 6.5 6.5 6.5h24.48c3.59 0 6.5-2.92 6.5-6.5v-42.76c0-3.58-2.91-6.5-6.5-6.5zm-18.77 38v-3.74c0-.28.221-.5.5-.5h12.06c.279 0 .5.22.5.5v3.74c0 .28-.221.5-.5.5h-12.06c-.28 0-.5-.22-.5-.5zm15.64-16.38-2.62 11.43c-.05.23-.26.39-.49.39h-12c-.23 0-.44-.159-.49-.39l-2.55-11.42c-1.26-.03-2.27-1.05-2.27-2.31 0-1.28 1.029-2.32 2.31-2.32s2.31 1.04 2.31 2.32c0 .52-.18 1-.479 1.39l4.63 4.86 1.44-5.23c-.721-.39-1.21-1.15-1.21-2.02 0-1.28 1.029-2.32 2.31-2.32s2.31 1.04 2.31 2.32c0 .899-.52 1.68-1.279 2.06l1.52 5.21 4.72-4.75c-.359-.41-.579-.94-.579-1.52 0-1.28 1.029-2.32 2.31-2.32s2.31 1.04 2.31 2.32c-.003 1.23-.983 2.24-2.203 2.3z"/></g></svg>