<svg enable-background="new 0 0 64 64" height="512" viewBox="10.7 2 42.7 60"  width="512" xmlns="http://www.w3.org/2000/svg"><g id="Layer_49"><path d="m44.24 4.12h-24.48c-3.59 0-6.5 2.92-6.5 6.5v42.76c0 3.58 2.91 6.5 6.5 6.5h24.48c3.59 0 6.5-2.92 6.5-6.5v-42.76c0-3.58-2.91-6.5-6.5-6.5zm-25.08 15.26c-.97-.58-1.73-1.41-2.26-2.45-.521-1.029-.78-2.199-.78-3.479 0-1.271.26-2.45.78-3.5.529-1.07 1.3-1.9 2.279-2.46.971-.561 2.07-.84 3.271-.84 1.21 0 2.31.29 3.29.869.98.58 1.74 1.41 2.26 2.45.5 1.03.76 2.19.76 3.471 0 1.06-.17 2.029-.49 2.88-.26.67-.619 1.279-1.079 1.819.529.33 1.02.58 1.479.75.12.051.22.15.28.271.05.13.05.27 0 .39l-.47 1.12c-.08.2-.271.311-.461.311-.06 0-.119-.011-.17-.03-.84-.3-1.67-.76-2.5-1.37-.89.439-1.88.66-2.939.66-1.18-.002-2.28-.292-3.25-.862zm12.84 23.24c-.76 0-1.42-.53-1.6-1.29-.7-2.87-2.23-4.021-4.011-5.34-1.27-.971-2.569-1.95-3.52-3.521-1.34-2.22-1.54-4.689-.55-6.95 1.1-2.479 3.46-4.14 5.88-4.14 1.43 0 2.74.55 3.81 1.61 1.061-1.061 2.37-1.61 3.8-1.61 2.421 0 4.771 1.66 5.87 4.14.99 2.25.79 4.721-.55 6.95-.96 1.59-2.3 2.601-3.479 3.49-1.801 1.35-3.351 2.51-4.04 5.38-.18.761-.84 1.281-1.61 1.281zm15.1 11.43c-.529 1.07-1.3 1.9-2.279 2.46-.971.561-2.07.84-3.271.84-1.21 0-2.31-.29-3.29-.869-.979-.58-1.74-1.41-2.26-2.45-.5-1.03-.76-2.19-.76-3.471 0-1.06.17-2.029.49-2.88.26-.67.619-1.279 1.079-1.819-.529-.33-1.02-.58-1.479-.75-.12-.051-.22-.15-.28-.271-.05-.13-.05-.27 0-.39l.47-1.12c.11-.25.381-.37.631-.28.84.3 1.67.76 2.5 1.37.89-.439 1.88-.66 2.939-.66 1.18 0 2.28.29 3.25.86.97.58 1.73 1.41 2.26 2.45.521 1.029.78 2.199.78 3.479 0 1.271-.26 2.451-.78 3.501z"/><path d="m41.5 46.14c.04.011.09.021.13.03.14.04.25.12.32.25.069.12.08.26.04.4l-.39 1.17c-.09.25-.359.39-.609.319-.82-.229-1.53-.56-2.12-.97-.64.75-.97 1.84-.97 3.22 0 .91.159 1.71.46 2.37.3.65.72 1.141 1.279 1.5.561.36 1.2.53 1.9.53 1.07 0 1.93-.35 2.63-1.08.7-.72 1.05-1.84 1.05-3.33 0-1.439-.35-2.56-1.04-3.3-.7-.759-1.56-1.109-2.68-1.109z"/><path d="m22.37 17.83c-.14-.04-.25-.12-.32-.25-.069-.12-.08-.26-.04-.4l.391-1.17c.09-.25.359-.39.609-.319.82.229 1.53.56 2.12.97.64-.75.97-1.84.97-3.22 0-.91-.159-1.71-.46-2.37-.3-.65-.72-1.141-1.279-1.5-.561-.36-1.2-.53-1.9-.53-1.07 0-1.93.35-2.63 1.08-.7.72-1.05 1.84-1.05 3.33 0 1.439.35 2.56 1.04 3.3.699.76 1.6 1.13 2.68 1.11-.041-.011-.091-.021-.131-.031z"/></g></svg>