<svg enable-background="new 0 0 64 64" height="512" viewBox="10.7 2 42.7 60"  width="512" xmlns="http://www.w3.org/2000/svg"><g id="Layer_36"><path d="m44.24 4.12h-24.48c-3.59 0-6.5 2.92-6.5 6.5v42.76c0 3.58 2.91 6.5 6.5 6.5h24.48c3.59 0 6.5-2.92 6.5-6.5v-42.76c0-3.58-2.91-6.5-6.5-6.5zm-25.34 15.21c-.7-.61-1.12-1.47-1.26-2.55-.01-.13.02-.271.11-.37.08-.11.21-.17.34-.19l1.44-.13c.25-.02.49.15.54.41.1.56.28.96.53 1.18.48.42 1.37.44 1.94.09.28-.17.51-.39.69-.68.19-.3.36-.729.49-1.28.06-.22.1-.449.14-.68-.13.101-.27.19-.41.271-.59.34-1.24.51-1.93.51-1.15 0-2.13-.42-2.92-1.25s-1.18-1.91-1.18-3.24c0-1.36.41-2.479 1.23-3.32.82-.85 1.86-1.279 3.09-1.279.89 0 1.71.239 2.45.72.73.47 1.3 1.16 1.68 2.04.37.86.55 2.04.55 3.62 0 1.609-.18 2.92-.54 3.89-.37 1.01-.94 1.8-1.68 2.33-.75.55-1.64.82-2.64.82-1.07-.002-1.97-.312-2.66-.912zm14.18 22.26c-.18.43-.61.71-1.08.71s-.9-.28-1.08-.71c-1.37-3.21-4.33-6.26-8.32-8.58-.36-.2-.59-.59-.59-1.02 0-.42.23-.82.6-1.021 3.99-2.3 6.94-5.34 8.31-8.56.18-.43.61-.71 1.08-.71s.9.28 1.08.71c1.37 3.22 4.33 6.26 8.32 8.56.36.2.59.601.59 1.021 0 .43-.23.819-.59 1.029-3.99 2.311-6.95 5.361-8.32 8.571zm12.27 14.31c-.82.85-1.86 1.279-3.09 1.279-.89 0-1.71-.239-2.45-.72-.73-.47-1.3-1.16-1.68-2.04-.37-.86-.55-2.04-.55-3.62 0-1.609.18-2.92.54-3.89.37-1.01.94-1.8 1.68-2.33.75-.55 1.64-.82 2.64-.82 1.07 0 1.97.311 2.66.91.7.61 1.12 1.47 1.26 2.55.01.13-.02.271-.11.37-.08.11-.21.17-.34.19l-1.44.13c-.26.01-.49-.15-.54-.41-.1-.56-.28-.96-.53-1.18-.48-.42-1.37-.44-1.94-.09-.28.17-.51.39-.69.68-.19.3-.36.729-.49 1.28-.06.22-.1.449-.14.68.13-.101.27-.19.41-.271.59-.34 1.24-.51 1.93-.51 1.15 0 2.13.42 2.92 1.25s1.18 1.91 1.18 3.24c0 1.362-.41 2.482-1.23 3.322z"/><path d="m42.12 50.41c-.55 0-.99.189-1.34.57-.36.38-.54.949-.54 1.67 0 .739.18 1.3.56 1.71.74.81 1.86.79 2.64-.061.41-.45.61-1.03.61-1.77 0-.65-.18-1.15-.56-1.54-.37-.389-.82-.579-1.37-.579z"/><path d="m21.92 9.05c-.52 0-.96.21-1.36.65-.41.45-.61 1.03-.61 1.77 0 .65.18 1.15.56 1.54.37.391.82.58 1.37.58s.99-.189 1.34-.57c.36-.38.54-.949.54-1.67 0-.739-.18-1.3-.56-1.71-.36-.39-.78-.59-1.28-.59z"/></g></svg>