<svg enable-background="new 0 0 64 64" height="512" viewBox="10.7 2 42.7 60" width="512" xmlns="http://www.w3.org/2000/svg"><g id="Layer_24"><path d="m44.24 4.12h-24.48c-3.59 0-6.5 2.92-6.5 6.5v42.76c0 3.58 2.91 6.5 6.5 6.5h24.48c3.59 0 6.5-2.92 6.5-6.5v-42.76c0-3.58-2.91-6.5-6.5-6.5zm-25.59 14.57c-.88-1.02-1.3-2.6-1.3-4.85 0-2.49.46-4.28 1.41-5.45.86-1.04 2.02-1.57 3.46-1.57 1.07 0 1.98.31 2.68.92.7.62 1.13 1.48 1.27 2.54.01.14-.03.27-.11.38-.09.11-.22.17-.35.18l-1.49.12c-.25.02-.47-.15-.53-.39-.14-.62-.31-.91-.44-1.05-.55-.58-1.47-.63-2.08-.18-.4.29-.72.73-.95 1.29-.14.34-.24.77-.3 1.28.16-.12.33-.23.51-.32.59-.3 1.21-.45 1.86-.45 1.13 0 2.11.42 2.91 1.26.78.82 1.18 1.89 1.18 3.18 0 .84-.18 1.63-.54 2.36-.37.73-.89 1.31-1.55 1.71-.65.39-1.4.59-2.22.59-1.39 0-2.54-.52-3.42-1.55zm14.43 22.9c-.18.43-.61.71-1.08.71s-.9-.28-1.08-.71c-1.37-3.21-4.33-6.26-8.32-8.58-.36-.2-.59-.59-.59-1.02 0-.42.23-.82.6-1.02 3.99-2.3 6.94-5.34 8.31-8.56.18-.43.61-.71 1.08-.71s.9.28 1.08.71c1.37 3.22 4.33 6.26 8.32 8.56.359.2.59.59.59 1.02s-.23.82-.59 1.03c-3.99 2.31-6.95 5.36-8.32 8.57zm12.16 14.02c-.86 1.04-2.021 1.57-3.46 1.57-1.07 0-1.98-.31-2.681-.92-.699-.62-1.13-1.48-1.27-2.54-.01-.14.03-.27.11-.38.09-.11.22-.17.35-.18l1.49-.12c.26-.02.47.15.52.39.15.62.32.91.45 1.05.55.58 1.47.62 2.08.18.4-.29.72-.73.95-1.29.14-.34.239-.77.3-1.28-.16.12-.33.23-.51.32-.59.3-1.21.45-1.86.45-1.13 0-2.11-.42-2.91-1.26-.78-.82-1.18-1.89-1.18-3.18 0-.84.18-1.63.54-2.36.37-.73.89-1.31 1.55-1.71.65-.39 1.4-.59 2.22-.59 1.391 0 2.54.52 3.42 1.55.881 1.02 1.301 2.6 1.301 4.85 0 2.49-.46 4.28-1.41 5.45z"/><path d="m42.92 46.28c-.31-.2-.63-.29-.97-.29-.49 0-.9.19-1.25.59-.38.42-.561.99-.561 1.75 0 .71.181 1.25.54 1.64.36.38.79.57 1.33.57s.98-.19 1.36-.58.56-.89.56-1.55c0-.44-.09-.87-.279-1.27-.18-.38-.42-.66-.73-.86z"/><path d="m23.3 17.42c.38-.42.56-.99.56-1.75 0-.71-.18-1.25-.54-1.64-.36-.38-.79-.57-1.33-.57s-.98.19-1.36.58-.56.89-.56 1.55c0 .44.09.87.28 1.27.18.38.42.66.73.86.76.48 1.62.38 2.22-.3z"/></g></svg>