<svg enable-background="new 0 0 64 64" height="512" viewBox="10.7 2 42.7 60"  width="512" xmlns="http://www.w3.org/2000/svg"><g id="Layer_42"><path d="m44.24 4.12h-24.48c-3.59 0-6.5 2.92-6.5 6.5v42.76c0 3.58 2.91 6.5 6.5 6.5h24.48c3.59 0 6.5-2.92 6.5-6.5v-42.76c0-3.58-2.91-6.5-6.5-6.5zm-26.09 15.04c-.65-.71-.97-1.75-.95-3.09.01-.24.19-.45.43-.48l1.45-.2c.15-.02.29.021.39.11.11.09.18.22.18.36.05 1.06.27 1.449.4 1.6.21.23.51.35.91.35.31 0 .57-.069.78-.21.2-.119.33-.279.4-.489.07-.181.14-.57.14-1.36v-8.381c0-.28.22-.5.5-.5h1.61c.28 0 .5.22.5.5v8.29c0 1.1-.14 1.939-.41 2.56-.29.66-.76 1.17-1.39 1.521-.6.33-1.32.5-2.12.5-1.21-.001-2.16-.361-2.82-1.081zm17.35 22.81-6.97.011c-.54 0-1.05-.29-1.32-.761-.38-.66-.24-1.479.33-1.95.22-.189.44-.42.66-.699-1.74.09-3.42-.54-4.64-1.74-1.16-1.13-1.81-2.65-1.86-4.28-.01-.189.01-.67.02-.74.14-1.52.83-2.92 1.95-3.949.65-.641 1.43-1.16 2.48-1.83 1.71-1.09 3.65-2.32 4.38-4.891.18-.659.79-1.12 1.48-1.12.68 0 1.29.471 1.47 1.131.73 2.56 2.67 3.8 4.39 4.89.95.61 1.8 1.15 2.51 1.85 1.08 1.011 1.76 2.41 1.9 3.92.01.04.02.78.02.83-.11 3.42-3.01 6.08-6.49 5.931.2.25.4.47.59.64.37.23.63.72.63 1.23 0 .837-.69 1.527-1.53 1.527zm10.87 6.44-1.45.2c-.14.02-.28-.021-.39-.11-.11-.09-.18-.22-.18-.36-.05-1.06-.27-1.449-.4-1.6-.21-.23-.51-.35-.91-.35-.31 0-.57.069-.78.21-.2.119-.33.279-.4.489-.07.181-.14.57-.14 1.36v8.38c0 .28-.22.5-.5.5h-1.61c-.28 0-.5-.22-.5-.5v-8.29c0-1.1.14-1.939.41-2.56.29-.66.76-1.17 1.39-1.521.6-.33 1.32-.5 2.12-.5 1.21 0 2.16.36 2.82 1.08.65.71.97 1.75.95 3.09-.01.242-.19.452-.43.482z"/></g></svg>