<svg enable-background="new 0 0 64 64" height="512" viewBox="10.7 2 42.7 60"  width="512" xmlns="http://www.w3.org/2000/svg"><g id="Layer_33"><path d="m44.24 4.12h-24.48c-3.59 0-6.5 2.92-6.5 6.5v42.76c0 3.58 2.91 6.5 6.5 6.5h24.48c3.59 0 6.5-2.92 6.5-6.5v-42.76c0-3.58-2.91-6.5-6.5-6.5zm-25.58 14.91c-.84-.8-1.26-1.82-1.26-3.021 0-.89.24-1.66.7-2.279.26-.351.57-.631.95-.851-.25-.18-.45-.39-.62-.63-.36-.5-.54-1.11-.54-1.8 0-1.021.37-1.891 1.11-2.59.73-.69 1.7-1.04 2.88-1.04 1.19 0 2.17.35 2.91 1.06.75.71 1.13 1.59 1.13 2.61 0 .67-.18 1.27-.54 1.77-.17.241-.38.451-.63.641.39.25.73.56.99.92.45.63.68 1.38.68 2.239 0 1.171-.43 2.181-1.26 2.98s-1.92 1.2-3.25 1.2-2.43-.399-3.25-1.209zm14.95 22.31c-.181.76-.84 1.28-1.61 1.28-.76 0-1.42-.53-1.6-1.29-.7-2.87-2.23-4.021-4.01-5.34-1.27-.971-2.57-1.95-3.52-3.521-1.34-2.22-1.54-4.689-.55-6.95 1.1-2.479 3.46-4.14 5.88-4.14 1.43 0 2.74.55 3.81 1.61 1.061-1.061 2.37-1.61 3.8-1.61 2.421 0 4.771 1.66 5.87 4.14.99 2.25.79 4.721-.55 6.95-.96 1.59-2.3 2.601-3.479 3.49-1.801 1.351-3.351 2.511-4.041 5.381zm11.96 10.41c.359.5.54 1.11.54 1.8 0 1.021-.37 1.891-1.11 2.59-.73.69-1.7 1.04-2.88 1.04-1.19 0-2.17-.35-2.91-1.06-.75-.71-1.13-1.59-1.13-2.61 0-.67.18-1.27.54-1.77.17-.24.38-.45.63-.641-.39-.25-.73-.56-.99-.92-.45-.63-.68-1.38-.68-2.239 0-1.171.43-2.181 1.26-2.98s1.92-1.2 3.25-1.2 2.43.4 3.25 1.21c.84.8 1.26 1.82 1.26 3.021 0 .89-.239 1.66-.699 2.279-.261.351-.57.631-.95.851.249.179.449.389.619.629z"/><path d="m42.08 52.14c-.44 0-.79.13-1.061.4-.27.26-.399.58-.399.97 0 .42.13.75.42 1.03.57.56 1.57.55 2.13.01.28-.27.41-.58.41-.95 0-.439-.13-.79-.4-1.06-.28-.27-.64-.4-1.1-.4z"/><path d="m43.12 46.25c-.33-.18-.67-.26-1.04-.26-.59 0-1.05.18-1.42.54-.37.37-.55.819-.55 1.399s.19 1.051.57 1.431c.38.37.86.56 1.44.56.57 0 1.03-.18 1.399-.55.37-.37.551-.83.551-1.39 0-.351-.09-.681-.25-1.011-.16-.309-.39-.549-.7-.719z"/><path d="m21.92 11.86c.44 0 .79-.13 1.06-.4.27-.26.4-.58.4-.97 0-.42-.13-.75-.42-1.03-.28-.28-.63-.42-1.06-.42-.44 0-.79.14-1.07.41s-.41.58-.41.95c0 .439.13.79.4 1.06.28.27.64.4 1.1.4z"/><path d="m23.34 17.47c.37-.37.55-.819.55-1.399s-.19-1.051-.57-1.431c-.38-.37-.86-.56-1.44-.56-.57 0-1.03.18-1.4.55s-.55.83-.55 1.39c0 .351.09.681.25 1.011.16.31.39.55.7.72.33.18.67.26 1.04.26.59-.001 1.05-.181 1.42-.541z"/></g></svg>