<svg enable-background="new 0 0 64 64" height="512" viewBox="10.7 2 42.7 60"  width="512" xmlns="http://www.w3.org/2000/svg"><g id="Layer_27"><path d="m44.24 4.12h-24.48c-3.59 0-6.5 2.92-6.5 6.5v42.76c0 3.58 2.91 6.5 6.5 6.5h24.48c3.59 0 6.5-2.92 6.5-6.5v-42.76c0-3.58-2.91-6.5-6.5-6.5zm-22.99 15.91h-1.53c-.14 0-.27-.05-.36-.15-.09-.09-.15-.22-.14-.35.01-1 .21-2.2.58-3.59.36-1.39.9-2.74 1.59-4.03.49-.92 1-1.74 1.54-2.45h-4.92c-.27 0-.5-.22-.5-.5v-1.44c0-.27.23-.5.5-.5h7.88c.28 0 .5.23.5.5v1.17c0 .12-.05.24-.13.34-.75.79-1.5 1.86-2.23 3.19-.74 1.32-1.32 2.71-1.72 4.11-.29.98-.48 2.07-.56 3.24-.02.26-.23.46-.5.46zm14.32 22.61h-7.14c-.33 0-.64-.17-.81-.46-.24-.4-.15-.9.2-1.2.58-.5 1.13-1.19 1.63-2.05-1.18.36-2.49.35-3.69-.09-2.23-.84-3.72-2.99-3.72-5.36 0-2.6 1.81-4.9 4.3-5.55-.22-1.39.11-2.81.95-4.04 1.08-1.58 2.84-2.52 4.7-2.53 1.86.01 3.62.95 4.7 2.53.85 1.23 1.18 2.65.96 4.04 2.49.65 4.31 2.95 4.31 5.55 0 2.37-1.5 4.52-3.74 5.35-1.18.44-2.5.47-3.68.09.48.85 1.01 1.51 1.59 2.02.22.12.39.43.39.76 0 .52-.42.94-.95.94zm10.92 13.84c0 .27-.23.5-.5.5h-7.88c-.28 0-.5-.23-.5-.5v-1.17c0-.12.05-.24.13-.34.75-.79 1.5-1.86 2.23-3.19.74-1.32 1.32-2.71 1.72-4.11.29-.98.48-2.07.56-3.24.02-.26.23-.46.5-.46h1.53c.14 0 .27.05.36.15.09.09.15.22.14.35-.01 1-.21 2.2-.58 3.59-.36 1.39-.9 2.74-1.59 4.03-.49.92-1 1.74-1.54 2.45h4.92c.27 0 .5.22.5.5z"/></g></svg>