<svg enable-background="new 0 0 64 64" height="512" viewBox="10.7 2 42.7 60"  width="512" xmlns="http://www.w3.org/2000/svg"><g id="Layer_44"><path d="m44.24 4.12h-24.48c-3.59 0-6.5 2.92-6.5 6.5v42.76c0 3.58 2.91 6.5 6.5 6.5h24.48c3.59 0 6.5-2.92 6.5-6.5v-42.76c0-3.58-2.91-6.5-6.5-6.5zm-26.09 15.04c-.65-.71-.971-1.75-.95-3.09.01-.24.189-.45.43-.48l1.45-.2c.15-.02.29.021.39.11.11.09.181.22.181.36.05 1.06.27 1.449.399 1.6.21.23.51.35.91.35.31 0 .57-.069.78-.21.2-.119.33-.279.399-.489.07-.181.141-.57.141-1.36v-8.381c0-.28.22-.5.5-.5h1.609c.28 0 .5.22.5.5v8.29c0 1.1-.14 1.939-.409 2.56-.29.66-.761 1.17-1.391 1.521-.6.33-1.32.5-2.12.5-1.209-.001-2.159-.361-2.819-1.081zm14.93 22.43c-.18.43-.61.71-1.08.71s-.9-.28-1.08-.71c-1.37-3.21-4.33-6.26-8.32-8.58-.359-.2-.59-.59-.59-1.02 0-.42.23-.82.601-1.021 3.989-2.3 6.939-5.34 8.31-8.56.18-.43.61-.71 1.08-.71s.9.28 1.08.71c1.37 3.22 4.33 6.26 8.32 8.56.359.2.59.601.59 1.021 0 .43-.23.819-.59 1.029-3.991 2.311-6.951 5.361-8.321 8.571zm13.29 6.82-1.45.2c-.15.02-.29-.021-.39-.11-.11-.09-.181-.22-.181-.36-.05-1.06-.27-1.449-.399-1.6-.21-.23-.51-.35-.91-.35-.31 0-.57.069-.78.21-.2.119-.33.279-.399.489-.07.181-.141.57-.141 1.36v8.38c0 .28-.22.5-.5.5h-1.61c-.28 0-.5-.22-.5-.5v-8.29c0-1.1.14-1.939.409-2.56.29-.66.761-1.17 1.391-1.521.6-.33 1.32-.5 2.12-.5 1.21 0 2.16.36 2.819 1.08.65.71.971 1.75.95 3.09-.009.242-.189.452-.429.482z"/></g></svg>