<svg enable-background="new 0 0 64 64" height="512" viewBox="10.7 2 42.7 60"  width="512" xmlns="http://www.w3.org/2000/svg"><g id="Layer_40"><path d="m44.24 4.12h-24.48c-3.59 0-6.5 2.92-6.5 6.5v42.76c0 3.58 2.91 6.5 6.5 6.5h24.48c3.59 0 6.5-2.92 6.5-6.5v-42.76c0-3.58-2.91-6.5-6.5-6.5zm-19.7 5.36c.29-.86.74-1.54 1.32-2.021.609-.49 1.37-.74 2.26-.74.66 0 1.25.141 1.75.41.51.271.93.661 1.27 1.171.311.48.551 1.07.73 1.74.17.67.25 1.57.25 2.67 0 1.3-.13 2.38-.41 3.2-.29.87-.729 1.55-1.32 2.03-.6.489-1.359.739-2.27.739-1.19 0-2.14-.43-2.83-1.3-.79-.99-1.17-2.52-1.17-4.67 0-1.349.14-2.399.42-3.229zm-2.79 8.52c0 .28-.23.5-.5.5h-1.32c-.279 0-.5-.22-.5-.5v-7.37c-.16.101-.319.21-.5.311-.54.319-1.029.56-1.47.72-.15.06-.32.03-.46-.061-.13-.09-.21-.25-.21-.409v-1.271c0-.2.11-.38.29-.46.689-.32 1.3-.72 1.81-1.18.5-.45.86-.88 1.06-1.28.08-.17.26-.28.45-.28h.85c.27 0 .5.221.5.5zm17.71 36.52c-.29.86-.74 1.54-1.32 2.021-.609.49-1.37.74-2.26.74-.66 0-1.25-.141-1.76-.41-.5-.271-.93-.66-1.26-1.17-.311-.48-.551-1.07-.73-1.74-.17-.67-.25-1.56-.25-2.67 0-1.3.13-2.38.41-3.2.29-.87.729-1.55 1.32-2.03.6-.489 1.37-.739 2.27-.739 1.19 0 2.14.43 2.83 1.3.78.99 1.17 2.52 1.17 4.67 0 1.338-.14 2.398-.42 3.228zm1.94-21.5c-3.99 2.311-6.95 5.36-8.32 8.57-.18.43-.61.71-1.08.71s-.9-.28-1.08-.71c-1.37-3.21-4.33-6.26-8.32-8.58-.359-.2-.59-.59-.59-1.02 0-.42.23-.82.601-1.021 3.989-2.3 6.939-5.34 8.31-8.56.18-.43.61-.71 1.08-.71s.9.28 1.08.71c1.37 3.22 4.33 6.26 8.32 8.56.359.2.59.601.59 1.021-.001.43-.231.82-.591 1.03zm5.81 21.06c0 .2-.11.38-.29.46-.689.32-1.3.72-1.81 1.18-.5.45-.86.88-1.061 1.28-.08.17-.26.28-.45.28h-.85c-.27 0-.5-.221-.5-.5v-10.78c0-.28.23-.5.5-.5h1.32c.279 0 .5.22.5.5v7.37c.16-.101.319-.21.5-.311.54-.319 1.029-.56 1.47-.72.15-.06.32-.03.46.061.13.09.21.25.21.409v1.271z"/><path d="m35.88 47.4c-.45 0-.8.21-1.12.67-.24.34-.529 1.18-.529 3.22 0 2.06.289 2.9.529 3.24.32.45.681.66 1.13.66.44 0 .78-.181 1.04-.561.271-.38.59-1.28.59-3.34 0-2.05-.279-2.89-.52-3.23-.32-.449-.68-.659-1.12-.659z"/><path d="m29.24 15.93c.24-.34.529-1.18.529-3.22 0-2.06-.289-2.9-.529-3.24-.32-.45-.681-.66-1.13-.66-.44 0-.78.181-1.04.561-.271.38-.59 1.28-.59 3.34 0 2.05.279 2.89.52 3.23.64.899 1.6.899 2.24-.011z"/></g></svg>