<svg enable-background="new 0 0 64 64" height="512" viewBox="10.7 2 42.7 60"  width="512" xmlns="http://www.w3.org/2000/svg"><g id="Layer_25"><path d="m44.24 4.12h-24.48c-3.59 0-6.5 2.92-6.5 6.5v42.76c0 3.58 2.91 6.5 6.5 6.5h24.48c3.59 0 6.5-2.92 6.5-6.5v-42.76c0-3.58-2.91-6.5-6.5-6.5zm-25.59 14.57c-.881-1.02-1.301-2.6-1.301-4.85 0-2.46.48-4.29 1.41-5.45.86-1.04 2.021-1.57 3.46-1.57 1.07 0 1.98.31 2.681.93.699.61 1.13 1.47 1.27 2.53.01.14-.03.27-.11.38-.09.11-.22.17-.35.18l-1.49.12c-.26.01-.47-.15-.52-.39-.15-.62-.32-.91-.45-1.05-.55-.58-1.47-.63-2.08-.18-.4.29-.71.73-.95 1.3-.14.33-.239.76-.3 1.27.16-.12.33-.23.51-.32.59-.3 1.21-.45 1.86-.45 1.13 0 2.11.42 2.91 1.26.78.82 1.18 1.89 1.18 3.18 0 .84-.18 1.63-.54 2.36-.37.73-.89 1.31-1.55 1.71-.65.39-1.4.59-2.22.59-1.39 0-2.54-.52-3.42-1.55zm14.96 22.65c-.18.76-.84 1.28-1.61 1.28-.76 0-1.42-.53-1.6-1.29-.7-2.87-2.23-4.02-4.011-5.34-1.27-.97-2.569-1.95-3.52-3.52-1.34-2.22-1.54-4.69-.55-6.95 1.1-2.48 3.46-4.14 5.88-4.14 1.43 0 2.74.55 3.81 1.61 1.061-1.06 2.37-1.61 3.8-1.61 2.421 0 4.771 1.66 5.87 4.14.99 2.25.79 4.72-.55 6.95-.96 1.59-2.3 2.6-3.479 3.49-1.8 1.35-3.35 2.51-4.04 5.38zm11.63 14.27c-.86 1.04-2.021 1.57-3.46 1.57-1.07 0-1.98-.31-2.681-.93-.699-.61-1.13-1.47-1.27-2.53-.01-.14.03-.27.11-.38.09-.11.22-.17.35-.18l1.49-.12c.26-.02.47.15.52.39.15.62.32.91.45 1.05.55.58 1.47.62 2.08.18.4-.29.71-.73.95-1.3.14-.33.239-.76.3-1.27-.16.12-.33.23-.51.32-.59.3-1.21.45-1.86.45-1.13 0-2.11-.42-2.91-1.26-.78-.82-1.18-1.89-1.18-3.18 0-.84.18-1.63.54-2.36.37-.73.89-1.31 1.55-1.71.65-.39 1.4-.59 2.22-.59 1.391 0 2.54.52 3.42 1.55.881 1.02 1.301 2.6 1.301 4.85 0 2.46-.48 4.29-1.41 5.45z"/><path d="m42.92 46.28c-.31-.2-.63-.29-.97-.29-.49 0-.9.19-1.25.59-.38.42-.561.99-.561 1.75 0 .71.181 1.25.54 1.64.36.38.79.57 1.33.57s.98-.19 1.36-.58.56-.89.56-1.55c0-.44-.09-.87-.279-1.27-.18-.38-.42-.66-.73-.86z"/><path d="m23.3 17.42c.38-.42.561-.99.561-1.75 0-.71-.181-1.25-.54-1.64-.36-.38-.79-.57-1.33-.57s-.98.19-1.36.58-.56.89-.56 1.55c0 .44.09.87.279 1.27.181.38.42.66.73.86.76.48 1.61.38 2.22-.3z"/></g></svg>