<svg enable-background="new 0 0 64 64" height="512" viewBox="10.7 2 42.7 60" width="512" xmlns="http://www.w3.org/2000/svg"><g id="Layer_19"><path d="m44.24 4.12h-24.48c-3.59 0-6.5 2.92-6.5 6.5v42.76c0 3.58 2.91 6.5 6.5 6.5h24.48c3.59 0 6.5-2.92 6.5-6.5v-42.76c0-3.58-2.91-6.5-6.5-6.5zm-25.46 15.07c-.79-.71-1.25-1.65-1.36-2.79-.02-.14.03-.27.11-.37.09-.11.21-.17.34-.18l1.57-.13c.26-.03.5.16.54.42.1.64.32 1.12.65 1.43.33.3.72.44 1.2.44.57 0 1.05-.21 1.45-.65.42-.45.62-1.04.62-1.82 0-.72-.19-1.27-.58-1.67-.38-.39-.88-.58-1.52-.58-.4 0-.74.08-1.06.26-.31.18-.56.4-.73.68-.11.17-.3.25-.49.23l-1.4-.18c-.14-.02-.26-.09-.34-.2-.08-.12-.12-.26-.09-.39l1.18-6.25c.04-.24.25-.41.49-.41h6.05c.28 0 .5.22.5.5v1.43c0 .28-.22.5-.5.5h-4.45l-.36 1.82c.52-.21 1.05-.31 1.6-.31 1.19 0 2.22.42 3.04 1.25.83.83 1.24 1.9 1.24 3.19 0 1.21-.36 2.28-1.07 3.17-.87 1.1-2.08 1.66-3.58 1.66-1.23 0-2.25-.35-3.05-1.05zm16.79 23.45h-7.14c-.33 0-.64-.17-.81-.46-.24-.4-.15-.9.2-1.2.58-.5 1.13-1.19 1.63-2.05-1.18.36-2.49.35-3.69-.09-2.23-.84-3.72-2.99-3.72-5.36 0-2.6 1.81-4.9 4.3-5.55-.22-1.39.11-2.81.95-4.04 1.08-1.58 2.84-2.52 4.7-2.53 1.859.01 3.62.95 4.7 2.53.85 1.23 1.18 2.65.96 4.04 2.489.65 4.31 2.95 4.31 5.55 0 2.37-1.5 4.52-3.74 5.35-1.18.45-2.5.47-3.68.09.479.85 1.01 1.51 1.59 2.02.22.12.39.43.39.76 0 .52-.42.94-.95.94zm10.9 5.33c-.09.11-.21.17-.34.18l-1.57.13c-.26.03-.5-.16-.54-.42-.1-.64-.319-1.12-.649-1.43-.33-.3-.72-.44-1.2-.44-.57 0-1.05.21-1.45.65-.42.45-.62 1.04-.62 1.82 0 .72.19 1.27.58 1.67.38.39.88.58 1.521.58.399 0 .74-.08 1.06-.26.311-.18.561-.4.73-.68.109-.17.3-.25.49-.23l1.399.18c.14.02.26.09.34.2.08.12.12.26.09.39l-1.18 6.25c-.04.24-.25.41-.49.41h-6.05c-.28 0-.5-.22-.5-.5v-1.43c0-.28.22-.5.5-.5h4.45l.36-1.82c-.521.21-1.051.31-1.601.31-1.189 0-2.22-.42-3.04-1.25-.83-.83-1.24-1.9-1.24-3.19 0-1.21.36-2.28 1.07-3.17.87-1.1 2.08-1.66 3.58-1.66 1.23 0 2.25.35 3.05 1.05.79.71 1.25 1.65 1.36 2.79.02.14-.03.27-.11.37z"/></g></svg>