<svg enable-background="new 0 0 64 64" height="512" viewBox="10.7 2 42.7 60"  width="512" xmlns="http://www.w3.org/2000/svg"><g id="Layer_21"><path d="m44.24 4.12h-24.48c-3.59 0-6.5 2.92-6.5 6.5v42.76c0 3.58 2.91 6.5 6.5 6.5h24.48c3.59 0 6.5-2.92 6.5-6.5v-42.76c0-3.58-2.91-6.5-6.5-6.5zm-25.46 15.07c-.79-.71-1.25-1.65-1.36-2.79-.02-.14.03-.27.11-.37.09-.11.21-.17.34-.18l1.57-.13c.27-.02.5.16.54.42.1.64.319 1.12.649 1.43.33.3.72.44 1.2.44.57 0 1.05-.21 1.45-.65.42-.45.62-1.04.62-1.82 0-.72-.19-1.27-.58-1.67-.38-.39-.88-.58-1.521-.58-.399 0-.74.08-1.06.26-.311.18-.561.4-.73.68-.109.17-.3.26-.49.23l-1.399-.18c-.14-.02-.26-.09-.34-.2-.08-.12-.12-.26-.09-.39l1.18-6.25c.04-.24.25-.41.49-.41h6.05c.28 0 .5.22.5.5v1.43c0 .28-.22.5-.5.5h-4.45l-.36 1.82c.521-.21 1.051-.31 1.601-.31 1.189 0 2.22.42 3.04 1.25.83.83 1.24 1.9 1.24 3.19 0 1.21-.36 2.28-1.07 3.17-.87 1.1-2.08 1.66-3.58 1.66-1.23 0-2.25-.35-3.05-1.05zm14.83 22.15c-.18.76-.84 1.28-1.61 1.28-.76 0-1.42-.53-1.6-1.29-.7-2.87-2.23-4.02-4.011-5.34-1.27-.96-2.569-1.95-3.52-3.52-1.34-2.22-1.54-4.69-.55-6.95 1.1-2.48 3.46-4.14 5.88-4.14 1.43 0 2.74.55 3.81 1.61 1.061-1.06 2.37-1.61 3.8-1.61 2.421 0 4.771 1.66 5.87 4.14.99 2.25.79 4.72-.55 6.95-.96 1.59-2.3 2.6-3.479 3.49-1.8 1.35-3.35 2.51-4.04 5.38zm12.86 6.63c-.09.11-.21.17-.34.18l-1.57.13c-.26.03-.5-.16-.54-.42-.1-.64-.319-1.12-.649-1.43-.33-.3-.72-.44-1.2-.44-.57 0-1.05.21-1.45.65-.42.45-.62 1.04-.62 1.82 0 .72.19 1.27.58 1.67.38.39.88.58 1.521.58.399 0 .74-.08 1.06-.26.311-.18.561-.4.73-.68.109-.17.3-.25.49-.23l1.399.18c.14.02.26.09.34.2.08.12.12.26.09.39l-1.18 6.25c-.04.24-.25.41-.49.41h-6.05c-.28 0-.5-.22-.5-.5v-1.43c0-.28.22-.5.5-.5h4.45l.36-1.82c-.521.21-1.051.31-1.601.31-1.189 0-2.22-.42-3.04-1.25-.83-.83-1.24-1.9-1.24-3.19 0-1.21.36-2.28 1.07-3.17.87-1.1 2.08-1.66 3.58-1.66 1.23 0 2.25.35 3.05 1.05.79.71 1.25 1.65 1.36 2.79.02.14-.03.27-.11.37z"/></g></svg>