<svg enable-background="new 0 0 64 64" height="512" viewBox="10.7 2 42.7 60"  width="512" xmlns="http://www.w3.org/2000/svg"><g id="Layer_35"><path d="m44.24 4.12h-24.48c-3.59 0-6.5 2.92-6.5 6.5v42.76c0 3.58 2.91 6.5 6.5 6.5h24.48c3.59 0 6.5-2.92 6.5-6.5v-42.76c0-3.58-2.91-6.5-6.5-6.5zm-25.34 15.21c-.7-.61-1.12-1.47-1.261-2.55-.01-.13.03-.271.11-.37.08-.11.21-.17.34-.19l1.44-.13c.27-.02.489.15.54.41.1.56.279.96.529 1.18.48.42 1.37.44 1.94.09.28-.17.51-.39.69-.68.189-.3.359-.729.489-1.28.061-.22.101-.449.141-.68-.13.101-.271.19-.41.271-.59.34-1.24.51-1.931.51-1.149 0-2.13-.42-2.92-1.25s-1.18-1.91-1.18-3.24c0-1.36.41-2.479 1.23-3.32.823-.851 1.863-1.281 3.093-1.281.89 0 1.71.239 2.45.72.729.47 1.3 1.16 1.68 2.04.37.86.55 2.04.55 3.62 0 1.609-.18 2.92-.54 3.89-.37 1.01-.939 1.8-1.68 2.33-.75.55-1.641.82-2.641.82-1.069 0-1.969-.31-2.659-.91zm16.67 23.31h-7.14c-.33 0-.64-.18-.81-.46-.24-.399-.15-.899.2-1.199.58-.5 1.13-1.19 1.63-2.051-1.19.36-2.49.351-3.69-.1-2.229-.83-3.72-2.98-3.72-5.35 0-2.601 1.82-4.9 4.3-5.551-.22-1.39.11-2.81.95-4.04 1.08-1.58 2.84-2.52 4.7-2.529 1.859.01 3.62.949 4.7 2.529.85 1.23 1.18 2.65.96 4.04 2.489.65 4.31 2.95 4.31 5.551 0 2.369-1.5 4.52-3.74 5.35-1.18.45-2.5.47-3.68.09.479.85 1.01 1.51 1.59 2.021.22.119.39.43.39.76 0 .519-.42.939-.95.939zm9.78 13.26c-.819.85-1.859 1.279-3.09 1.279-.89 0-1.71-.239-2.45-.72-.729-.47-1.3-1.16-1.68-2.04-.37-.86-.55-2.04-.55-3.62 0-1.609.18-2.92.54-3.89.37-1.01.939-1.8 1.68-2.33.75-.55 1.641-.82 2.641-.82 1.069 0 1.97.311 2.659.91.7.61 1.12 1.47 1.261 2.55.01.13-.03.271-.11.37-.08.11-.21.17-.34.19l-1.44.13c-.27.02-.489-.15-.54-.41-.1-.56-.279-.96-.529-1.18-.48-.42-1.37-.44-1.94-.09-.28.17-.51.39-.69.68-.189.3-.359.729-.489 1.28-.061.22-.101.449-.141.68.13-.101.271-.19.41-.271.59-.34 1.24-.51 1.931-.51 1.149 0 2.13.42 2.92 1.25s1.18 1.91 1.18 3.24c-.003 1.362-.413 2.482-1.233 3.322z"/><path d="m42.12 50.41c-.55 0-.99.189-1.34.57-.36.38-.54.949-.54 1.67 0 .739.18 1.3.56 1.71.73.81 1.86.79 2.641-.061.409-.45.609-1.03.609-1.77 0-.65-.18-1.15-.56-1.54-.37-.389-.82-.579-1.37-.579z"/><path d="m21.92 9.05c-.52 0-.96.21-1.36.65-.409.45-.609 1.03-.609 1.77 0 .65.18 1.15.56 1.54.37.391.82.58 1.37.58s.99-.189 1.34-.57c.36-.38.54-.949.54-1.67 0-.739-.18-1.3-.56-1.71-.361-.39-.781-.59-1.281-.59z"/></g></svg>