<svg enable-background="new 0 0 64 64" height="512" viewBox="10.7 2 42.7 60"  width="512" xmlns="http://www.w3.org/2000/svg"><g id="Layer_5"><path d="m44.24 4.12h-24.48c-3.59 0-6.5 2.92-6.5 6.5v42.76c0 3.58 2.91 6.5 6.5 6.5h24.48c3.59 0 6.5-2.92 6.5-6.5v-42.76c0-3.58-2.91-6.5-6.5-6.5zm-25.17 15.13c-.07.2-.261.33-.471.33h-1.71c-.17 0-.319-.08-.409-.21-.101-.14-.12-.31-.061-.46l4.681-12.17c.07-.2.261-.32.46-.32h1.74c.2 0 .38.12.46.31l4.98 12.17c.06.15.05.32-.05.46-.091.14-.25.22-.41.22h-1.84c-.2 0-.391-.12-.46-.32l-1.3-3.36h-4.39zm12.93 23.37c-.76 0-1.42-.53-1.6-1.29-.7-2.87-2.23-4.02-4.011-5.34-1.27-.96-2.569-1.95-3.52-3.52-1.34-2.22-1.54-4.69-.55-6.95 1.1-2.48 3.46-4.14 5.88-4.14 1.43 0 2.74.55 3.81 1.61 1.061-1.06 2.37-1.61 3.8-1.61 2.421 0 4.771 1.66 5.87 4.14.99 2.25.79 4.72-.55 6.95-.96 1.59-2.3 2.6-3.479 3.49-1.801 1.35-3.351 2.51-4.04 5.38-.18.76-.84 1.28-1.61 1.28zm15.57 2.48-4.98 12.17c-.07.19-.26.31-.46.31h-1.73c-.21 0-.4-.12-.471-.32l-4.67-12.17c-.06-.15-.04-.32.05-.46.091-.13.25-.21.41-.21h1.71c.21 0 .4.13.471.33l1.22 3.35h4.39l1.3-3.36c.07-.2.261-.32.471-.32h1.83c.17 0 .319.08.42.22.089.14.109.31.039.46z"/><path d="m21.11 13.59h2.699c-.34-.92-.949-2.56-1.39-3.78-.409 1.23-.979 2.86-1.309 3.78z"/><path d="m41.26 54.19c.44-1.22 1.04-2.86 1.38-3.78h-2.7c.33.92.91 2.55 1.32 3.78z"/></g></svg>