<svg enable-background="new 0 0 64 64" height="512" viewBox="10.7 2 42.7 60"  width="512" xmlns="http://www.w3.org/2000/svg"><g id="Layer_20"><path d="m44.24 4.12h-24.48c-3.59 0-6.5 2.92-6.5 6.5v42.76c0 3.58 2.91 6.5 6.5 6.5h24.48c3.59 0 6.5-2.92 6.5-6.5v-42.76c0-3.58-2.91-6.5-6.5-6.5zm2.23 43.85c-.09.11-.21.17-.34.18l-1.57.13c-.26.03-.5-.16-.54-.42-.1-.64-.319-1.12-.649-1.43-.33-.3-.72-.44-1.2-.44-.57 0-1.05.21-1.45.65-.42.45-.62 1.04-.62 1.82 0 .72.19 1.27.58 1.67.38.39.88.58 1.521.58.399 0 .74-.08 1.06-.26.311-.18.561-.4.73-.68.109-.17.3-.25.49-.23l1.399.18c.14.02.26.09.34.2.08.12.12.26.09.39l-1.18 6.25c-.04.24-.25.41-.49.41h-6.05c-.28 0-.5-.22-.5-.5v-1.43c0-.28.22-.5.5-.5h4.45l.36-1.82c-.521.21-1.051.31-1.601.31-1.189 0-2.22-.42-3.04-1.25-.83-.83-1.24-1.9-1.24-3.19 0-1.21.36-2.28 1.07-3.17.87-1.1 2.08-1.66 3.58-1.66 1.23 0 2.25.35 3.05 1.05.79.71 1.25 1.65 1.36 2.79.02.14-.03.27-.11.37zm-29.05-31.57c-.02-.14.03-.27.11-.37.09-.11.21-.17.34-.18l1.57-.13c.27-.02.5.16.54.42.1.64.319 1.12.649 1.43.33.3.72.44 1.2.44.57 0 1.05-.21 1.45-.65.42-.45.62-1.04.62-1.82 0-.72-.19-1.27-.58-1.67-.38-.39-.88-.58-1.521-.58-.399 0-.74.08-1.06.26-.311.18-.561.4-.73.68-.109.17-.3.26-.49.23l-1.399-.18c-.14-.02-.26-.09-.34-.2-.08-.12-.12-.26-.09-.39l1.18-6.25c.04-.24.25-.41.49-.41h6.05c.28 0 .5.22.5.5v1.43c0 .28-.22.5-.5.5h-4.45l-.36 1.82c.521-.21 1.051-.31 1.601-.31 1.189 0 2.22.42 3.04 1.25.83.83 1.24 1.9 1.24 3.19 0 1.21-.36 2.28-1.07 3.17-.87 1.1-2.08 1.66-3.58 1.66-1.23 0-2.25-.35-3.05-1.05-.79-.71-1.25-1.65-1.36-2.79zm24.57 15.59c0 .43-.23.82-.59 1.03-3.99 2.31-6.95 5.36-8.32 8.57-.18.43-.61.71-1.08.71s-.9-.28-1.08-.71c-1.37-3.21-4.33-6.26-8.32-8.58-.359-.2-.59-.59-.59-1.02 0-.42.23-.82.601-1.02 3.989-2.3 6.939-5.34 8.31-8.56.19-.43.61-.71 1.08-.71s.89.28 1.08.71c1.37 3.22 4.33 6.26 8.32 8.56.359.2.589.59.589 1.02z"/></g></svg>