<svg enable-background="new 0 0 64 64" height="512" viewBox="10.7 2 42.7 60"  width="512" xmlns="http://www.w3.org/2000/svg"><g id="Layer_4"><path d="m44.24 4.12h-24.48c-3.59 0-6.5 2.92-6.5 6.5v42.76c0 3.58 2.91 6.5 6.5 6.5h24.48c3.59 0 6.5-2.92 6.5-6.5v-42.76c0-3.58-2.91-6.5-6.5-6.5zm-25.48 16.55c-.06.21-.26.35-.47.35h-1.74c-.16 0-.31-.08-.41-.21-.09-.13-.12-.3-.07-.46l4.43-13.03c.07-.2.26-.34.48-.34h2.02c.22 0 .41.14.48.34l4.4 12.91c.06.08.09.18.09.29 0 .27-.22.5-.5.5-.01 0-.01-.01-.02 0h-1.8c-.21 0-.4-.14-.47-.34l-1.28-3.76h-3.9zm13.24 21.63c-.47 0-.9-.28-1.08-.71-1.37-3.21-4.33-6.26-8.32-8.58-.36-.2-.59-.59-.59-1.02 0-.42.23-.82.6-1.02 3.99-2.3 6.94-5.34 8.31-8.56.18-.43.61-.71 1.08-.71s.9.28 1.08.71c1.37 3.22 4.33 6.26 8.32 8.56.359.2.59.59.59 1.02s-.23.82-.59 1.03c-3.99 2.31-6.95 5.36-8.32 8.57-.18.43-.61.71-1.08.71zm15.93 1.35-4.45 13.03c-.07.2-.261.34-.48.34h-2.02c-.221 0-.41-.14-.48-.34l-4.43-13.03c-.051-.16-.021-.33.069-.46.101-.13.25-.21.41-.21h1.74c.21 0 .41.14.47.35l1.241 3.75h3.9l1.279-3.76c.07-.2.261-.34.471-.34h1.8c.16 0 .31.08.41.21.09.14.12.3.07.46z"/><path d="m20.68 14.6h2.54c-.3-.93-.87-2.67-1.27-3.97-.41 1.3-.97 3.04-1.27 3.97z"/><path d="m41.95 53.37c.399-1.3.97-3.04 1.27-3.97h-2.54c.3.93.86 2.67 1.27 3.97z"/></g></svg>