<svg enable-background="new 0 0 64 64" height="512" 
viewBox="10.7 2 42.7 60" 
width="512" xmlns="http://www.w3.org/2000/svg"><g id="Layer_1"><path d="m44.24 4.12h-24.48c-3.59 0-6.5 2.92-6.5 6.5v42.76c0 3.58 2.91 6.5 6.5 6.5h24.48c3.59 0 6.5-2.92 6.5-6.5v-42.76c0-3.58-2.91-6.5-6.5-6.5zm-25.48 16.55c-.06.21-.26.35-.47.35h-1.74c-.16 0-.31-.08-.41-.21-.09-.13-.12-.3-.07-.46l4.43-13.03c.07-.2.26-.34.48-.34h2.02c.22 0 .41.14.48.34l4.4 12.91c.06.08.09.18.09.29 0 .27-.22.5-.5.5 0 0-.01-.01-.02 0h-1.8c-.21 0-.4-.14-.47-.34l-1.28-3.76h-3.9zm9.77 21.31c-.54 0-1.05-.29-1.32-.76-.38-.66-.24-1.48.33-1.95.22-.19.44-.42.66-.7-1.74.08-3.42-.54-4.64-1.74-1.16-1.13-1.81-2.65-1.86-4.28-.01-.19.01-.68.02-.74.14-1.52.83-2.92 1.95-3.95.64-.64 1.43-1.16 2.48-1.83 1.71-1.09 3.65-2.32 4.38-4.89.18-.66.79-1.12 1.48-1.12.68 0 1.29.47 1.47 1.13.73 2.56 2.67 3.8 4.39 4.89.95.61 1.8 1.15 2.51 1.85 1.08 1.01 1.76 2.41 1.9 3.92 0 .03.02.79.02.84-.11 3.41-3.01 6.08-6.49 5.92.2.25.4.47.59.64.37.23.63.72.63 1.23 0 .84-.69 1.53-1.53 1.53zm19.4 1.67-4.45 13.03c-.07.2-.26.34-.48.34h-2.02c-.22 0-.41-.14-.48-.34l-4.43-13.03c-.05-.16-.02-.33.07-.46.1-.13.25-.21.41-.21h1.74c.21 0 .41.14.47.35l1.24 3.75h3.9l1.28-3.76c.07-.2.26-.34.47-.34h1.8c.16 0 .32.08.41.21.09.14.12.3.07.46z"/><path d="m20.68 14.6h2.54c-.3-.93-.87-2.67-1.27-3.97-.41 1.3-.97 3.04-1.27 3.97z"/><path d="m41.95 53.37c.4-1.3.97-3.04 1.27-3.97h-2.54c.3.93.86 2.67 1.27 3.97z"/></g></svg>