<svg enable-background="new 0 0 64 64" height="512" viewBox="10.7 2 42.7 60"  width="512" xmlns="http://www.w3.org/2000/svg"><g id="Layer_50"><path d="m44.24 4.12h-24.48c-3.59 0-6.5 2.92-6.5 6.5v42.76c0 3.58 2.91 6.5 6.5 6.5h24.48c3.59 0 6.5-2.92 6.5-6.5v-42.76c0-3.58-2.91-6.5-6.5-6.5zm-25 11.41v4c0 .279-.221.5-.5.5h-1.61c-.27 0-.5-.221-.5-.5v-12.16c0-.28.23-.5.5-.5h1.61c.279 0 .5.22.5.5v4.82l5.19-5.18c.101-.09.221-.14.36-.14h2.18c.2 0 .391.12.46.31.08.19.03.4-.109.54l-4.79 4.63 5.069 6.89c.11.149.131.35.04.52-.08.17-.26.271-.449.271h-2.12c-.16 0-.32-.07-.41-.21l-3.99-5.681zm9.29 26.45c-.54 0-1.05-.29-1.32-.761-.38-.66-.24-1.479.33-1.95.22-.189.44-.42.66-.699-1.74.09-3.42-.54-4.641-1.74-1.159-1.13-1.81-2.65-1.859-4.28-.01-.189.01-.67.02-.74.141-1.52.83-2.92 1.95-3.949.65-.641 1.43-1.16 2.48-1.83 1.71-1.09 3.649-2.32 4.38-4.891.18-.659.79-1.12 1.479-1.12.681 0 1.29.471 1.471 1.131.729 2.56 2.67 3.8 4.39 4.89.95.61 1.8 1.15 2.51 1.85 1.08 1.011 1.76 2.41 1.9 3.92.01.04.02.78.02.83-.109 3.42-3.01 6.091-6.49 5.931.2.25.4.47.591.64.369.23.63.72.63 1.23 0 .84-.69 1.529-1.53 1.529zm18.84 14.65c0 .28-.23.5-.5.5h-1.61c-.279 0-.5-.22-.5-.5v-4.82l-5.19 5.18c-.101.09-.221.14-.36.14h-2.18c-.2 0-.391-.12-.46-.31-.08-.19-.03-.4.109-.54l4.79-4.63-5.069-6.89c-.11-.149-.131-.35-.04-.52.08-.17.26-.271.449-.271h2.12c.16 0 .32.07.41.21l3.99 5.681 1.43-1.391v-4c0-.279.221-.5.5-.5h1.61c.27 0 .5.221.5.5v12.161z"/></g></svg>