<svg enable-background="new 0 0 64 64" height="512" viewBox="10.7 2 42.7 60"  width="512" xmlns="http://www.w3.org/2000/svg"><g id="Layer_14"><path d="m44.24 4.12h-24.48c-3.59 0-6.5 2.92-6.5 6.5v42.76c0 3.58 2.91 6.5 6.5 6.5h24.48c3.59 0 6.5-2.92 6.5-6.5v-42.76c0-3.58-2.91-6.5-6.5-6.5zm-26.92 13c-.28 0-.5-.22-.5-.5v-1.37c0-.1.03-.2.09-.29l5.55-7.88c.1-.14.25-.21.41-.21h1.22c.28 0 .5.22.5.5v7.38h1.14c.28 0 .5.22.5.5v1.37c0 .28-.22.5-.5.5h-1.14v2.41c0 .28-.22.5-.5.5h-1.49c-.28 0-.5-.22-.5-.5v-2.41zm18.18 24.85-6.97.01c-.54 0-1.05-.29-1.32-.76-.38-.66-.24-1.48.33-1.95.22-.19.44-.42.66-.7-1.74.08-3.42-.54-4.64-1.74-1.16-1.13-1.81-2.65-1.86-4.28-.01-.19.01-.67.02-.74.14-1.52.83-2.92 1.95-3.95.65-.64 1.43-1.16 2.48-1.83 1.71-1.09 3.65-2.32 4.38-4.89.18-.66.79-1.12 1.48-1.12.68 0 1.29.47 1.471 1.13.729 2.56 2.67 3.8 4.39 4.89.95.61 1.8 1.15 2.51 1.85 1.08 1.01 1.76 2.41 1.9 3.92.01.04.02.78.02.83-.109 3.42-3.01 6.11-6.49 5.93.2.25.4.47.591.64.369.23.63.72.63 1.23-.002.84-.692 1.53-1.532 1.53zm11.47 6.78c0 .1-.04.2-.09.29l-5.56 7.88c-.09.14-.24.21-.41.21h-1.22c-.271 0-.5-.22-.5-.5v-7.38h-1.14c-.28 0-.5-.22-.5-.5v-1.37c0-.28.22-.5.5-.5h1.141v-2.41c0-.28.229-.5.5-.5h1.5c.27 0 .5.22.5.5v2.41h4.779c.271 0 .5.22.5.5z"/><path d="m41.69 52.64 2.35-3.39h-2.35z"/><path d="m22.1 11.36-2.36 3.39h2.36z"/></g></svg>