<svg enable-background="new 0 0 64 64" height="512" viewBox="10.7 2 42.7 60"  width="512" xmlns="http://www.w3.org/2000/svg"><g id="Layer_38"><path d="m44.24 4.12h-24.48c-3.59 0-6.5 2.92-6.5 6.5v42.76c0 3.58 2.91 6.5 6.5 6.5h24.48c3.59 0 6.5-2.92 6.5-6.5v-42.76c0-3.58-2.91-6.5-6.5-6.5zm-19.7 5.36c.29-.86.74-1.54 1.32-2.021.61-.49 1.37-.74 2.26-.74.66 0 1.25.141 1.75.41.51.271.94.66 1.27 1.17.31.48.55 1.07.73 1.74.17.67.25 1.56.25 2.67 0 1.3-.13 2.38-.41 3.2-.29.87-.73 1.55-1.32 2.03-.6.489-1.37.739-2.27.739-1.19 0-2.14-.43-2.83-1.3-.78-.99-1.17-2.52-1.17-4.67 0-1.338.14-2.398.42-3.228zm-3.29 9.02h-1.32c-.28 0-.5-.22-.5-.5v-7.37c-.16.101-.32.21-.5.311-.54.319-1.03.56-1.47.72-.15.06-.32.03-.45-.061-.14-.09-.22-.25-.22-.409v-1.271c0-.2.11-.38.29-.46.69-.32 1.3-.72 1.81-1.18.5-.45.86-.88 1.06-1.28.08-.17.26-.28.45-.28h.85c.27 0 .5.221.5.5v10.78c0 .28-.23.5-.5.5zm18.21 36.02c-.29.86-.74 1.54-1.32 2.021-.609.49-1.37.74-2.26.74-.66 0-1.25-.141-1.76-.41-.5-.271-.93-.66-1.26-1.17-.31-.48-.55-1.07-.73-1.74-.17-.67-.25-1.56-.25-2.67 0-1.3.13-2.38.41-3.2.29-.87.729-1.55 1.32-2.03.6-.489 1.37-.739 2.27-.739 1.19 0 2.14.43 2.83 1.3.78.99 1.17 2.52 1.17 4.67 0 1.338-.14 2.398-.42 3.228zm-3.65-15.95c.2.25.4.47.591.64.369.23.63.72.63 1.23 0 .84-.69 1.529-1.53 1.529l-6.97.011c-.54 0-1.05-.29-1.32-.761-.38-.66-.24-1.479.33-1.95.22-.189.44-.42.66-.699-1.74.09-3.42-.54-4.64-1.74-1.16-1.13-1.81-2.65-1.86-4.28-.01-.189.01-.67.02-.74.14-1.52.83-2.92 1.95-3.949.65-.641 1.43-1.16 2.48-1.83 1.71-1.09 3.65-2.32 4.38-4.891.18-.659.79-1.12 1.48-1.12.68 0 1.29.471 1.471 1.131.729 2.56 2.67 3.8 4.39 4.89.95.61 1.8 1.15 2.51 1.85 1.08 1.011 1.76 2.41 1.9 3.92.01.04.02.78.02.83-.112 3.419-3.012 6.079-6.492 5.929zm11.4 15.51c0 .2-.11.38-.29.46-.689.32-1.3.72-1.81 1.18-.5.45-.86.88-1.061 1.28-.08.17-.26.28-.45.28h-.85c-.27 0-.5-.221-.5-.5v-10.78c0-.28.23-.5.5-.5h1.32c.279 0 .5.22.5.5v7.37c.16-.101.319-.21.5-.311.54-.319 1.029-.56 1.47-.72.15-.06.32-.03.46.061.13.09.21.25.21.409v1.271z"/><path d="m35.88 47.4c-.45 0-.8.21-1.12.67-.24.34-.529 1.18-.529 3.22 0 2.06.289 2.9.529 3.24.32.45.681.66 1.13.66.44 0 .78-.181 1.04-.561.271-.38.59-1.28.59-3.34 0-2.05-.279-2.89-.52-3.23-.32-.449-.68-.659-1.12-.659z"/><path d="m29.24 15.93c.24-.34.53-1.18.53-3.22 0-2.06-.29-2.9-.53-3.24-.32-.45-.68-.66-1.13-.66-.44 0-.78.181-1.04.561-.27.38-.59 1.28-.59 3.34 0 2.05.28 2.89.52 3.23.64.899 1.6.899 2.24-.011z"/></g></svg>