<svg enable-background="new 0 0 64 64" height="512" viewBox="10.7 2 42.7 60"  width="512" xmlns="http://www.w3.org/2000/svg"><g id="Layer_13"><path d="m44.24 4.12h-24.48c-3.59 0-6.5 2.92-6.5 6.5v42.76c0 3.58 2.91 6.5 6.5 6.5h24.48c3.59 0 6.5-2.92 6.5-6.5v-42.76c0-3.58-2.91-6.5-6.5-6.5zm-25.44 15.05c-.8-.72-1.26-1.66-1.37-2.8-.03-.27.16-.51.43-.54l1.49-.2c.26-.04.51.14.56.39.15.74.39 1.26.72 1.56.32.29.7.43 1.17.43.57 0 1.04-.19 1.43-.58s.58-.87.58-1.46c0-.55-.17-.99-.53-1.34-.35-.35-.8-.52-1.36-.52-.23 0-.55.05-.92.15-.16.04-.33 0-.46-.11-.12-.11-.19-.27-.17-.44l.17-1.31c.03-.27.27-.46.55-.44.08.01.14.02.19.02.54 0 1.01-.14 1.44-.42.37-.24.54-.59.54-1.12 0-.41-.13-.73-.41-1-.55-.53-1.6-.54-2.19.02-.31.28-.51.74-.6 1.35-.02.13-.09.25-.2.33s-.25.11-.38.09l-1.49-.27c-.14-.02-.25-.1-.33-.21-.07-.1-.1-.24-.08-.37.2-1.11.68-2 1.41-2.62.74-.63 1.66-.94 2.74-.94.74 0 1.44.16 2.07.48.64.32 1.14.78 1.48 1.35s.51 1.19.51 1.83c0 .62-.16 1.19-.5 1.71-.16.23-.35.45-.57.64.38.22.71.5.97.84.47.61.7 1.38.7 2.27 0 1.2-.44 2.23-1.31 3.06s-1.98 1.25-3.29 1.25c-1.19 0-2.2-.36-2.99-1.08zm14.8 22.17c-.17.76-.83 1.28-1.6 1.28-.76 0-1.42-.53-1.6-1.29-.7-2.87-2.23-4.02-4.01-5.34-1.27-.96-2.57-1.95-3.52-3.52-1.34-2.22-1.54-4.69-.55-6.95 1.1-2.48 3.46-4.14 5.88-4.14 1.43 0 2.74.55 3.81 1.61 1.06-1.06 2.37-1.61 3.8-1.61 2.42 0 4.78 1.66 5.87 4.14.99 2.25.79 4.72-.55 6.95-.96 1.59-2.3 2.6-3.48 3.49-1.8 1.35-3.35 2.51-4.05 5.38zm12.54 6.83-1.49.2c-.26.04-.51-.14-.56-.39-.15-.74-.39-1.26-.72-1.56-.32-.29-.7-.43-1.17-.43-.57 0-1.04.19-1.43.58s-.58.87-.58 1.46c0 .55.17.99.53 1.34.35.35.8.52 1.36.52.23 0 .55-.05.92-.15.16-.04.33 0 .46.11.12.11.19.27.17.44l-.17 1.31c-.03.27-.28.46-.55.44-.08-.01-.14-.02-.19-.02-.54 0-1.01.14-1.44.42-.37.24-.54.59-.54 1.12 0 .41.13.73.41 1 .55.53 1.6.54 2.19-.02.31-.28.51-.74.6-1.35.02-.13.09-.25.2-.33s.25-.11.38-.09l1.49.27c.14.02.25.1.33.21.07.1.1.24.08.37-.2 1.11-.68 2-1.41 2.62-.74.63-1.66.94-2.74.94-.74 0-1.44-.16-2.07-.48-.64-.32-1.14-.78-1.48-1.35s-.51-1.19-.51-1.83c0-.62.16-1.19.5-1.71.16-.23.35-.45.57-.64-.38-.22-.71-.5-.97-.84-.47-.61-.7-1.38-.7-2.27 0-1.2.44-2.23 1.31-3.06s1.98-1.25 3.29-1.25c1.19 0 2.2.36 2.99 1.08.8.72 1.26 1.66 1.37 2.8.03.27-.16.51-.43.54z"/></g></svg>