<svg enable-background="new 0 0 64 64" height="512" viewBox="10.7 2 42.7 60"  width="512" xmlns="http://www.w3.org/2000/svg"><g id="Layer_23"><path d="m44.24 4.12h-24.48c-3.59 0-6.5 2.92-6.5 6.5v42.76c0 3.58 2.91 6.5 6.5 6.5h24.48c3.59 0 6.5-2.92 6.5-6.5v-42.76c0-3.58-2.91-6.5-6.5-6.5zm-25.59 14.57c-.88-1.02-1.3-2.6-1.3-4.85 0-2.49.46-4.28 1.41-5.45.86-1.04 2.02-1.57 3.46-1.57 1.07 0 1.98.31 2.68.92.7.62 1.13 1.48 1.27 2.54.01.14-.03.27-.11.38-.09.11-.22.17-.35.18l-1.49.12c-.25.02-.47-.15-.53-.39-.14-.62-.31-.91-.44-1.05-.55-.58-1.47-.63-2.08-.18-.4.29-.72.73-.95 1.29-.14.34-.24.77-.3 1.28.16-.12.33-.23.51-.32.59-.3 1.21-.45 1.86-.45 1.13 0 2.11.42 2.91 1.26.78.82 1.18 1.89 1.18 3.18 0 .84-.18 1.63-.54 2.36-.37.73-.89 1.31-1.55 1.71-.65.39-1.4.59-2.22.59-1.39 0-2.54-.52-3.42-1.55zm16.92 23.95h-7.14c-.33 0-.64-.17-.81-.46-.24-.4-.15-.9.2-1.2.58-.5 1.13-1.19 1.63-2.05-1.19.36-2.49.35-3.69-.09-2.23-.84-3.72-2.99-3.72-5.36 0-2.6 1.81-4.9 4.3-5.55-.22-1.39.11-2.81.95-4.04 1.08-1.58 2.84-2.52 4.7-2.53 1.86.01 3.62.95 4.7 2.53.85 1.23 1.18 2.65.96 4.04 2.49.65 4.31 2.95 4.31 5.55 0 2.37-1.5 4.52-3.74 5.35-1.18.44-2.5.46-3.68.09.48.85 1.01 1.51 1.59 2.02.22.12.39.43.39.76 0 .52-.42.94-.95.94zm9.67 12.97c-.86 1.04-2.02 1.57-3.46 1.57-1.07 0-1.98-.31-2.68-.92-.7-.62-1.13-1.48-1.27-2.54-.01-.14.03-.27.11-.38.09-.11.22-.17.35-.18l1.49-.12c.24-.02.47.15.53.39.14.62.31.91.44 1.05.55.58 1.47.62 2.08.18.4-.29.72-.73.95-1.29.14-.34.24-.77.3-1.28-.16.12-.33.23-.51.32-.59.3-1.21.45-1.86.45-1.13 0-2.11-.42-2.91-1.26-.78-.82-1.18-1.89-1.18-3.18 0-.84.18-1.63.54-2.36.37-.73.89-1.31 1.55-1.71.65-.39 1.4-.59 2.22-.59 1.39 0 2.54.52 3.42 1.55.88 1.02 1.3 2.6 1.3 4.85 0 2.49-.46 4.28-1.41 5.45z"/><path d="m42.92 46.28c-.31-.2-.63-.29-.97-.29-.49 0-.9.19-1.25.59-.38.42-.56.99-.56 1.75 0 .71.18 1.25.54 1.64.36.38.79.57 1.33.57s.98-.19 1.36-.58.56-.89.56-1.55c0-.44-.09-.87-.28-1.27-.18-.38-.42-.66-.73-.86z"/><path d="m23.3 17.42c.38-.42.56-.99.56-1.75 0-.71-.18-1.25-.54-1.64-.36-.38-.79-.57-1.33-.57s-.98.19-1.36.58-.56.89-.56 1.55c0 .44.09.87.28 1.27.18.38.42.66.73.86.76.48 1.61.38 2.22-.3z"/></g></svg>