<svg enable-background="new 0 0 64 64" height="512" viewBox="10.7 2 42.7 60"  width="512" xmlns="http://www.w3.org/2000/svg"><g id="Layer_41"><path d="m44.24 4.12h-24.48c-3.59 0-6.5 2.92-6.5 6.5v42.76c0 3.58 2.91 6.5 6.5 6.5h24.48c3.59 0 6.5-2.92 6.5-6.5v-42.76c0-3.58-2.91-6.5-6.5-6.5zm-19.7 5.36c.29-.86.74-1.54 1.32-2.021.61-.49 1.37-.74 2.26-.74.66 0 1.25.141 1.75.41.51.271.94.66 1.27 1.17.31.48.55 1.07.73 1.74.17.67.25 1.56.25 2.67 0 1.3-.13 2.38-.41 3.2-.29.87-.73 1.55-1.32 2.03-.6.489-1.37.739-2.27.739-1.19 0-2.14-.43-2.83-1.3-.78-.99-1.17-2.52-1.17-4.67 0-1.338.14-2.398.42-3.228zm-3.29 9.02h-1.32c-.28 0-.5-.22-.5-.5v-7.37c-.16.101-.32.21-.5.311-.54.319-1.03.56-1.47.72-.15.06-.32.03-.45-.061-.14-.09-.22-.25-.22-.409v-1.271c0-.2.11-.38.29-.46.69-.32 1.3-.72 1.81-1.18.5-.45.86-.88 1.06-1.28.08-.17.26-.28.45-.28h.85c.27 0 .5.221.5.5v10.78c0 .28-.23.5-.5.5zm18.21 36.02c-.29.86-.74 1.54-1.32 2.021-.61.49-1.37.74-2.26.74-.66 0-1.25-.141-1.75-.41-.51-.271-.94-.66-1.27-1.17-.31-.48-.55-1.07-.73-1.74-.17-.67-.25-1.56-.25-2.67 0-1.3.13-2.38.41-3.2.29-.87.73-1.55 1.32-2.03.6-.489 1.37-.739 2.27-.739 1.19 0 2.14.43 2.83 1.3.78.99 1.17 2.52 1.17 4.67 0 1.338-.14 2.398-.42 3.228zm-1.81-18.56c-1.8 1.35-3.35 2.51-4.05 5.38-.17.76-.83 1.28-1.6 1.28-.76 0-1.42-.53-1.6-1.29-.7-2.87-2.23-4.021-4.01-5.34-1.27-.971-2.57-1.95-3.52-3.521-1.34-2.22-1.54-4.689-.55-6.95 1.1-2.479 3.46-4.14 5.88-4.14 1.43 0 2.74.55 3.81 1.61 1.06-1.061 2.37-1.61 3.8-1.61 2.42 0 4.78 1.66 5.87 4.14.99 2.25.79 4.721-.55 6.95-.96 1.591-2.3 2.601-3.48 3.491zm9.56 18.12c0 .2-.11.38-.29.46-.69.32-1.3.72-1.81 1.18-.5.45-.86.88-1.06 1.28-.08.17-.26.28-.45.28h-.85c-.27 0-.5-.221-.5-.5v-10.78c0-.28.23-.5.5-.5h1.32c.28 0 .5.22.5.5v7.37c.16-.101.32-.21.5-.311.54-.319 1.03-.56 1.47-.72.15-.06.32-.03.45.061.14.09.22.25.22.409z"/><path d="m35.88 47.4c-.45 0-.8.21-1.12.67-.24.34-.53 1.18-.53 3.22 0 2.06.29 2.9.53 3.24.32.45.68.66 1.13.66.44 0 .78-.181 1.04-.561.27-.38.59-1.28.59-3.34 0-2.05-.28-2.89-.52-3.23-.32-.449-.68-.659-1.12-.659z"/><path d="m29.24 15.93c.24-.34.53-1.18.53-3.22 0-2.06-.29-2.9-.53-3.24-.32-.45-.68-.66-1.13-.66-.44 0-.78.181-1.04.561-.27.38-.59 1.28-.59 3.34 0 2.05.28 2.89.52 3.23.64.899 1.6.899 2.24-.011z"/></g></svg>