<svg enable-background="new 0 0 64 64" height="512" viewBox="10.7 2 42.7 60"  width="512" xmlns="http://www.w3.org/2000/svg"><g id="Layer_31"><path d="m44.24 4.12h-24.48c-3.59 0-6.5 2.92-6.5 6.5v42.76c0 3.58 2.91 6.5 6.5 6.5h24.48c3.59 0 6.5-2.92 6.5-6.5v-42.76c0-3.58-2.91-6.5-6.5-6.5zm-25.58 14.91c-.84-.8-1.26-1.82-1.26-3.02 0-.89.239-1.66.699-2.28.261-.35.57-.63.95-.85-.25-.18-.45-.39-.62-.63-.359-.5-.54-1.11-.54-1.8 0-1.02.37-1.89 1.11-2.59.73-.69 1.7-1.04 2.88-1.04 1.19 0 2.17.35 2.91 1.06.75.71 1.13 1.59 1.13 2.61 0 .67-.18 1.27-.54 1.77-.17.24-.38.45-.63.64.39.25.73.56.99.92.45.63.68 1.38.68 2.24 0 1.17-.43 2.18-1.26 2.98s-1.92 1.2-3.25 1.2-2.429-.4-3.249-1.21zm16.84 22.94-6.97.01c-.54 0-1.05-.29-1.32-.76-.38-.66-.24-1.48.33-1.95.22-.19.44-.42.66-.7-1.74.08-3.42-.54-4.641-1.74-1.159-1.13-1.81-2.65-1.859-4.28-.01-.19.01-.67.02-.74.141-1.52.83-2.92 1.95-3.95.65-.64 1.43-1.16 2.48-1.83 1.71-1.09 3.649-2.32 4.38-4.89.18-.66.79-1.12 1.479-1.12.681 0 1.29.47 1.471 1.13.729 2.56 2.67 3.8 4.39 4.89.95.61 1.8 1.15 2.51 1.85 1.08 1.01 1.76 2.41 1.9 3.92.01.04.02.78.02.83-.109 3.42-3.01 6.1-6.49 5.93.2.25.4.47.591.64.369.23.63.72.63 1.23-.001.84-.691 1.53-1.531 1.53zm10.07 9.78c.359.5.54 1.11.54 1.8 0 1.02-.37 1.89-1.11 2.59-.73.69-1.7 1.04-2.88 1.04-1.19 0-2.17-.35-2.91-1.06-.75-.71-1.13-1.59-1.13-2.61 0-.67.18-1.27.54-1.77.17-.24.38-.45.63-.64-.39-.25-.73-.56-.99-.92-.45-.63-.68-1.38-.68-2.24 0-1.17.43-2.18 1.26-2.98s1.92-1.2 3.25-1.2 2.43.4 3.25 1.21c.84.8 1.26 1.82 1.26 3.02 0 .89-.239 1.66-.699 2.28-.261.35-.57.63-.95.85.249.18.449.39.619.63z"/><path d="m42.08 52.14c-.44 0-.79.13-1.061.4-.27.26-.399.58-.399.97 0 .42.13.75.42 1.03.57.56 1.57.55 2.13.01.28-.27.41-.58.41-.95 0-.44-.13-.79-.4-1.06-.28-.27-.64-.4-1.1-.4z"/><path d="m43.12 46.25c-.33-.18-.67-.26-1.04-.26-.59 0-1.05.18-1.42.54-.37.37-.55.82-.55 1.4s.189 1.05.569 1.43c.38.37.86.56 1.44.56.57 0 1.03-.18 1.399-.55.37-.37.551-.83.551-1.39 0-.35-.09-.68-.25-1.01-.159-.31-.389-.55-.699-.72z"/><path d="m21.92 11.86c.44 0 .79-.13 1.061-.4.27-.26.399-.58.399-.97 0-.42-.13-.75-.42-1.03-.28-.28-.63-.42-1.06-.42-.44 0-.79.14-1.07.41s-.41.58-.41.95c0 .44.13.79.4 1.06.28.27.64.4 1.1.4z"/><path d="m23.34 17.47c.37-.37.55-.82.55-1.4s-.189-1.05-.569-1.43c-.38-.37-.86-.56-1.44-.56-.57 0-1.03.18-1.399.55-.37.37-.551.83-.551 1.39 0 .35.09.68.25 1.01.16.31.391.55.7.72.33.18.67.26 1.04.26.589 0 1.049-.18 1.419-.54z"/></g></svg>